<?xml version="1.0" standalone="no"?>
<!DOCTYPE svg PUBLIC "-//W3C//DTD SVG 20010904//EN"
 "http://www.w3.org/TR/2001/REC-SVG-20010904/DTD/svg10.dtd">
<svg version="1.0" xmlns="http://www.w3.org/2000/svg"
 width="300.000000pt" height="300.000000pt" viewBox="0 0 300.000000 300.000000"
 preserveAspectRatio="xMidYMid meet">
<metadata>
Created by potrace 1.10, written by Peter Selinger 2001-2011
</metadata>
<g transform="translate(0.000000,300.000000) scale(0.100000,-0.100000)"
fill="#000000" stroke="none">
<path d="M663 2368 c-29 -38 -112 -365 -115 -455 -1 -27 -5 -52 -9 -58 -16
-22 -89 -227 -122 -345 -50 -172 -60 -250 -55 -414 4 -125 8 -151 35 -228 53
-152 143 -253 267 -301 67 -25 183 -24 307 3 107 23 178 25 232 6 45 -16 52
-9 28 28 -26 39 -51 54 -148 87 -234 79 -338 222 -388 532 -3 21 -10 35 -14
32 -15 -9 -22 27 -15 73 8 54 18 41 33 -43 41 -219 200 -349 505 -410 110 -22
489 -22 616 0 193 33 328 103 412 212 69 92 91 158 122 373 11 83 20 91 34 32
9 -38 6 -106 -7 -181 -11 -66 -20 -86 -28 -63 -10 27 -21 9 -27 -45 -11 -98
-27 -155 -67 -241 -60 -130 -161 -218 -304 -266 -44 -14 -94 -35 -112 -46 -30
-18 -70 -66 -62 -74 2 -2 32 3 66 12 59 16 68 15 145 -1 46 -10 118 -23 160
-29 287 -41 496 171 515 523 11 198 -30 403 -129 647 -30 74 -55 156 -63 205
-21 130 -75 348 -99 397 -18 39 -25 45 -51 45 l-30 0 -6 -85 c-3 -47 -16 -116
-28 -154 -11 -37 -21 -77 -21 -87 0 -10 -3 -19 -6 -19 -4 0 -38 30 -77 66 -90
86 -210 144 -357 176 -150 32 -427 32 -580 0 -153 -32 -287 -100 -367 -186
l-60 -64 -27 86 c-14 48 -30 128 -34 177 -7 87 -8 90 -33 93 -14 2 -30 -3 -36
-10z m22 -266 c-10 -101 -15 -201 -11 -240 9 -92 9 -88 0 -169 -9 -95 -33 -95
-79 -3 -26 50 -24 205 4 335 23 109 64 257 83 302 l12 28 4 -40 c2 -22 -4
-118 -13 -213z m1661 211 c8 -21 33 -110 55 -198 44 -178 59 -323 40 -392 -11
-40 -54 -103 -71 -103 -4 0 -10 24 -13 53 -6 49 -44 177 -83 277 -17 45 -17
46 14 156 22 74 32 133 32 177 0 37 2 67 5 67 3 0 12 -17 21 -37z m-525 -86
c250 -65 401 -211 470 -455 32 -113 32 -324 1 -440 -47 -176 -135 -296 -257
-352 -140 -64 -295 -85 -574 -77 -266 7 -331 20 -471 90 -95 48 -108 58 -155
120 -35 46 -62 97 -85 160 -31 86 -33 102 -38 252 -5 191 5 243 74 383 81 165
225 272 429 321 120 28 142 30 340 26 142 -3 186 -8 266 -28z m-1041 -230 c-1
-7 -14 -37 -30 -67 -23 -44 -30 -51 -35 -37 -8 19 2 164 11 179 6 10 54 -57
54 -75z m-217 -317 c6 -19 12 -84 12 -145 1 -60 8 -135 16 -165 l14 -55 3 133
c1 72 5 132 9 132 18 0 30 -36 22 -71 -11 -48 -15 -267 -6 -339 l7 -55 -30 64
c-17 35 -33 62 -35 59 -16 -16 74 -224 135 -313 35 -50 162 -176 214 -211 21
-14 81 -41 135 -59 89 -31 93 -34 55 -34 -23 -1 -86 -10 -139 -21 -116 -24
-216 -26 -276 -5 -114 40 -210 145 -264 289 -55 146 -51 375 9 583 53 179 100
304 104 273 2 -14 8 -41 15 -60z m1957 2 c26 -58 85 -256 100 -337 18 -93 9
-377 -14 -440 -47 -128 -106 -213 -176 -253 l-45 -26 41 41 c89 88 134 184
160 343 18 109 18 186 -1 284 -29 151 -71 262 -118 314 -21 22 -21 23 -2 77
10 30 22 52 26 49 5 -3 18 -26 29 -52z m-47 -153 c96 -190 112 -447 41 -662
-45 -135 -157 -235 -298 -263 -68 -14 -82 -14 -152 0 -42 9 -104 16 -137 16
-76 0 -67 10 43 45 47 15 109 43 138 62 77 52 155 141 182 209 32 79 37 54 6
-32 -14 -37 -23 -70 -21 -72 7 -8 56 89 80 158 34 100 55 217 56 314 1 109 16
62 19 -59 2 -116 18 -85 19 37 1 85 -17 206 -38 262 -13 32 -5 69 12 63 7 -2
29 -37 50 -78z m-1789 -431 c10 -40 6 -54 -9 -28 -8 14 -14 31 -15 38 0 21 17
13 24 -10z"/>
<path d="M2308 2023 c-10 -2 -18 -9 -18 -14 0 -12 97 -12 104 0 11 17 -42 26
-86 14z"/>
<path d="M1636 2190 c4 -14 6 -52 5 -85 -2 -33 -3 -85 -4 -115 l-2 -55 35 0
c27 0 37 6 49 27 14 24 14 34 -3 102 -19 73 -19 76 -1 96 10 11 13 20 8 20 -6
0 -16 -7 -24 -16 -10 -12 -10 -27 -1 -73 15 -72 15 -106 0 -130 -10 -16 -16
-17 -35 -8 -23 10 -24 14 -16 61 12 77 9 174 -6 188 -11 11 -12 8 -5 -12z"/>
<path d="M1763 2169 c13 -8 17 -24 17 -74 0 -57 2 -65 19 -65 30 0 40 21 34
73 -6 54 -19 48 -18 -8 1 -19 -2 -35 -7 -35 -9 0 -9 1 -12 51 -2 38 -20 69
-40 69 -6 0 -3 -5 7 -11z"/>
<path d="M1869 2002 c3 -115 6 -136 11 -95 10 71 7 220 -5 232 -7 7 -9 -40 -6
-137z"/>
<path d="M1952 1971 c2 -36 8 -56 17 -59 10 -4 12 0 6 14 -4 11 -9 35 -12 54
-7 56 -14 49 -11 -9z"/>
<path d="M1916 1951 c3 -30 9 -62 14 -70 13 -22 11 -7 -6 64 l-14 60 6 -54z"/>
<path d="M2076 1923 c6 -62 14 -68 14 -10 0 25 -4 48 -9 51 -5 4 -7 -15 -5
-41z"/>
<path d="M1007 1826 c-67 -18 -126 -62 -162 -120 -24 -40 -30 -62 -33 -121 -6
-115 42 -200 140 -249 103 -51 245 -25 314 57 114 135 75 337 -79 411 -67 32
-120 38 -180 22z m164 -69 c64 -34 102 -93 107 -166 5 -73 -9 -118 -50 -160
-45 -46 -99 -71 -153 -71 -179 0 -277 200 -169 346 54 73 178 96 265 51z"/>
<path d="M986 1727 c-115 -65 -111 -242 7 -304 82 -43 199 -4 238 80 23 53 24
91 0 142 -45 98 -154 134 -245 82z m187 -57 c23 -26 27 -39 27 -90 0 -55 -3
-62 -35 -95 -32 -31 -41 -35 -89 -35 -59 0 -96 21 -121 70 -39 75 6 172 87
189 49 11 100 -4 131 -39z"/>
<path d="M1009 1651 c-23 -24 -29 -38 -29 -74 0 -39 5 -49 35 -76 23 -20 46
-31 65 -31 19 0 42 11 65 31 30 27 35 37 35 76 0 62 -40 103 -100 103 -33 0
-48 -6 -71 -29z m118 -23 c46 -43 16 -121 -47 -121 -22 0 -39 7 -52 22 -57 72
32 162 99 99z"/>
<path d="M1048 1619 c-21 -12 -24 -59 -6 -77 7 -7 24 -12 38 -12 32 0 50 17
50 46 0 44 -43 66 -82 43z"/>
<path d="M1913 1829 c-122 -22 -223 -139 -223 -259 0 -51 30 -126 67 -169 98
-115 278 -123 384 -18 179 180 22 489 -228 446z m132 -68 c128 -58 164 -223
72 -328 -60 -68 -162 -92 -245 -58 -167 71 -169 317 -2 389 48 21 127 19 175
-3z"/>
<path d="M1872 1734 c-54 -28 -85 -77 -90 -143 -5 -64 10 -104 55 -145 54 -50
163 -54 220 -7 86 71 84 211 -4 278 -45 34 -131 42 -181 17z m152 -40 c34 -23
56 -67 56 -112 0 -81 -51 -132 -134 -132 -106 0 -165 131 -98 218 36 47 127
60 176 26z"/>
<path d="M1864 1646 c-55 -55 -43 -125 26 -161 46 -24 78 -19 116 19 24 24 34
43 34 66 0 64 -43 109 -103 110 -31 0 -46 -7 -73 -34z m125 -22 c36 -45 24
-92 -29 -114 -25 -10 -34 -10 -55 4 -37 24 -48 60 -30 96 25 48 82 55 114 14z"/>
<path d="M1908 1618 c-42 -34 -18 -91 35 -86 42 4 60 47 32 78 -21 23 -44 26
-67 8z"/>
<path d="M1480 1341 c-19 -4 -45 -13 -56 -19 -61 -33 -111 -141 -100 -215 10
-67 51 -144 87 -166 65 -40 157 -35 222 11 83 59 94 259 19 341 -36 41 -108
60 -172 48z m103 -56 c43 -18 51 -29 33 -44 -11 -9 -12 -20 -4 -49 14 -52 25
-60 39 -28 9 19 15 23 21 14 9 -15 9 -76 0 -100 -6 -16 -11 -14 -39 12 -17 16
-34 38 -38 49 -8 26 -67 53 -102 47 -15 -3 -38 -18 -50 -33 -72 -90 -76 -94
-84 -81 -11 17 -11 89 0 107 7 11 12 7 24 -15 l15 -29 11 29 c14 35 16 66 6
89 -16 38 100 61 168 32z m-179 -63 c-1 -7 -2 -22 -3 -34 l-2 -23 -13 24 c-8
14 -12 31 -9 38 6 16 28 12 27 -5z m250 9 c4 -5 1 -22 -6 -38 l-11 -28 -7 30
c-3 17 -5 33 -3 38 6 10 21 9 27 -2z m-78 -88 c13 -14 22 -28 20 -30 -2 -2
-21 0 -42 5 -22 4 -57 5 -79 1 -22 -4 -41 -6 -43 -4 -8 7 14 38 32 45 43 18
86 11 112 -17z m9 -52 c22 -10 48 -27 57 -38 17 -19 16 -21 -15 -50 -39 -39
-88 -52 -147 -41 -43 8 -100 49 -100 73 0 16 40 52 70 64 39 15 91 12 135 -8z"/>
<path d="M1046 1218 c15 -69 19 -194 7 -201 -5 -2 -3 -2 4 -1 7 2 15 -1 18 -7
4 -5 10 -7 15 -4 5 3 13 -3 19 -12 8 -13 9 -4 3 32 -4 28 -7 96 -7 153 0 56
-3 102 -6 102 -3 0 -10 -10 -16 -22 l-10 -23 -12 23 c-21 40 -28 23 -15 -40z"/>
<path d="M2000 1124 c0 -29 -5 -44 -16 -48 -21 -8 -37 2 -30 20 3 8 0 11 -10
7 -19 -7 -15 -32 7 -46 26 -16 69 16 69 51 0 15 -5 34 -10 42 -7 11 -10 4 -10
-26z"/>
<path d="M898 1087 c13 -16 112 -71 117 -65 2 2 -26 20 -62 41 -36 20 -61 31
-55 24z"/>
<path d="M2119 1083 c-28 -33 -156 -82 -270 -104 -147 -27 -194 -40 -119 -32
158 15 317 66 379 120 20 18 33 32 30 33 -4 0 -13 -8 -20 -17z"/>
<path d="M1140 981 c20 -11 201 -44 207 -37 6 5 -1 7 -121 31 -88 17 -108 18
-86 6z"/>
<path d="M595 695 c75 -63 225 -92 335 -66 23 6 6 7 -51 3 -93 -5 -187 16
-266 59 -25 14 -31 15 -18 4z"/>
</g>
</svg>
