<?xml version="1.0" encoding="UTF-8" standalone="no"?>
<!DOCTYPE svg PUBLIC "-//W3C//DTD SVG 20010904//EN" "http://www.w3.org/TR/2001/REC-SVG-20010904/DTD/svg10.dtd">
<svg version="1.0" xmlns="http://www.w3.org/2000/svg" width="300.000000pt" height="300.000000pt" viewBox="0 0 300.000000 300.000000" preserveAspectRatio="xMidYMid meet">
<metadata>
Created by potrace 1.10, written by Peter Selinger 2001-2011
</metadata>
<g transform="translate(0.000000,300.000000) scale(0.100000,-0.100000)" fill="#ffffff" stroke="none">
<path d="M672 2363 c-29 -25 -97 -276 -121 -448 -5 -33 -27 -107 -50 -165 -196 -495 -183 -899 35 -1100 108 -100 217 -118 437 -75 131 26 141 26 202 12 38 -8 65 -10 65 -5 0 6 -15 25 -33 43 -23 23 -57 40 -115 59 -105 33 -127 45 -202 107 -100 83 -160 202 -185 365 -8 54 -13 99 -11 101 2 2 20 -30 39 -72 72 -150 185 -232 405 -292 95 -27 104 -27 377 -27 273 0 282 1 377 27 150 41 223 80 298 157 37 37 76 90 91 120 14 30 31 66 38 80 9 21 10 12 6 -50 -12 -154 -61 -275 -147 -367 -58 -60 -140 -118 -184 -129 -68 -16 -173 -66 -189 -90 -21 -33 -14 -39 26 -25 44 15 115 14 191 -4 35 -8 99 -19 143 -24 233 -29 410 110 482 379 21 78 23 300 4 400 -21 117 -72 283 -121 400 -29 70 -53 144 -59 188 -15 94 -75 346 -96 399 -9 23 -23 44 -31 47 -38 14 -54 -21 -54 -115 0 -27 -9 -75 -19 -106 -11 -32 -22 -73 -26 -90 -4 -18 -11 -33 -16 -33 -5 0 -37 27 -71 61 -141 136 -350 201 -648 201 -300 0 -511 -66 -648 -203 -36 -36 -66 -59 -71 -53 -25 29 -61 181 -61 261 0 45 -14 83 -29 83 -5 0 -18 -8 -29 -17z m19 -196 c-18 -129 -25 -321 -14 -353 14 -41 -13 -195 -33 -187 -50 19 -79 154 -63 288 12 95 63 307 93 385 l21 55 3 -55 c2 -30 -1 -90 -7 -133z m1648 154 c10 -18 50 -162 87 -311 11 -48 18 -113 19 -180 0 -90 -3 -111 -23 -147 -12 -23 -31 -47 -42 -53 -18 -10 -20 -8 -20 22 0 40 -33 161 -72 259 l-30 77 31 109 c21 73 31 131 31 176 0 71 3 79 19 48z m-534 -91 c157 -38 284 -113 365 -215 43 -54 103 -176 124 -254 26 -93 27 -311 2 -411 -41 -166 -141 -313 -249 -364 -158 -74 -466 -105 -758 -76 -259 27 -431 126 -510 295 -50 107 -69 203 -69 354 0 164 13 221 76 347 95 192 282 311 539 345 114 15 381 3 480 -21z m-1234 -648 c-2 -77 15 -217 30 -242 5 -9 9 28 9 95 0 102 9 151 23 128 4 -6 2 -72 -3 -148 -8 -125 -8 -169 5 -260 4 -25 -1 -21 -26 25 l-30 55 6 -40 c17 -105 113 -272 216 -375 97 -97 150 -132 252 -167 74 -25 79 -28 47 -31 -19 -1 -84 -12 -144 -23 -146 -29 -221 -23 -305 21 -107 57 -199 185 -236 329 -19 75 -22 277 -5 374 14 77 74 280 108 366 l25 64 15 -49 c8 -28 14 -81 13 -122z m1918 -87 c110 -263 84 -605 -58 -766 -54 -61 -134 -107 -219 -124 -66 -14 -78 -14 -159 4 -49 11 -104 21 -123 23 -32 3 -28 6 48 31 126 44 241 138 301 247 35 63 37 63 15 -9 -8 -29 -13 -55 -11 -58 10 -9 77 144 97 222 12 44 24 130 28 190 6 123 19 112 22 -20 2 -59 4 -72 10 -50 20 80 1 307 -31 367 -6 12 -6 25 2 40 l11 21 19 -24 c10 -13 32 -56 48 -94z"/>
<path d="M1007 1826 c-67 -18 -126 -62 -162 -121 -27 -44 -30 -56 -30 -135 0 -79 3 -91 30 -136 37 -60 107 -108 178 -125 151 -33 309 99 309 259 0 173 -163 302 -325 258z m141 -62 c174 -72 174 -316 0 -388 -133 -56 -287 47 -288 192 -1 147 154 253 288 196z"/>
<path d="M1017 1746 c-48 -18 -74 -41 -98 -88 -51 -100 3 -219 112 -248 154 -42 276 133 186 268 -41 63 -130 93 -200 68z m108 -121 c14 -13 25 -35 25 -48 0 -33 -35 -67 -70 -67 -65 0 -94 79 -44 119 35 27 59 26 89 -4z"/>
<path d="M1035 1606 c-32 -49 23 -103 72 -70 25 16 31 62 11 82 -21 21 -66 14 -83 -12z"/>
<path d="M1915 1830 c-94 -14 -183 -92 -210 -184 -19 -62 -19 -90 0 -153 55 -184 299 -247 434 -112 105 106 107 268 5 373 -60 62 -141 89 -229 76z m159 -87 c172 -121 88 -383 -122 -383 -68 0 -129 34 -170 96 -32 46 -34 53 -30 120 4 92 34 140 110 179 71 35 151 31 212 -12z"/>
<path d="M1897 1745 c-165 -58 -158 -289 9 -335 110 -31 214 51 214 168 0 29 -7 66 -15 81 -20 39 -69 78 -113 91 -46 12 -48 12 -95 -5z m90 -118 c40 -41 9 -117 -48 -117 -65 0 -93 80 -42 120 28 22 66 21 90 -3z"/>
<path d="M1894 1605 c-20 -30 -11 -62 21 -77 52 -23 99 46 59 86 -23 24 -61 20 -80 -9z"/>
<path d="M1480 1341 c-74 -15 -119 -60 -146 -146 -15 -46 -16 -62 -5 -107 14 -65 47 -125 83 -151 53 -40 163 -32 223 15 81 63 91 260 17 341 -36 41 -108 60 -172 48z m-83 -148 c-4 -17 -4 -17 -12 0 -4 9 -4 25 0 35 8 16 8 16 12 0 3 -10 3 -26 0 -35z m253 23 c0 -14 -4 -28 -10 -31 -6 -4 -10 7 -10 24 0 17 5 31 10 31 6 0 10 -11 10 -24z m-60 -128 c61 -32 70 -51 41 -82 -62 -66 -199 -57 -245 16 -8 13 -5 22 9 39 46 51 125 62 195 27z"/>
</g>
</svg>