<?xml version="1.0" standalone="no"?>
<!DOCTYPE svg PUBLIC "-//W3C//DTD SVG 20010904//EN"
 "http://www.w3.org/TR/2001/REC-SVG-20010904/DTD/svg10.dtd">
<svg version="1.0" xmlns="http://www.w3.org/2000/svg"
 width="300.000000pt" height="300.000000pt" viewBox="0 0 300.000000 300.000000"
 preserveAspectRatio="xMidYMid meet">
<metadata>
Created by potrace 1.10, written by Peter Selinger 2001-2011
</metadata>
<g transform="translate(0.000000,300.000000) scale(0.100000,-0.100000)"
fill="#000000" stroke="none">
<path d="M672 2363 c-29 -25 -101 -288 -122 -448 -4 -33 -26 -107 -49 -165
-196 -494 -183 -899 35 -1100 109 -100 221 -119 438 -75 135 27 177 27 249 0
28 -11 20 14 -16 50 -23 23 -57 40 -117 59 -240 76 -353 227 -395 529 -4 30
-3 47 4 47 6 0 11 -6 11 -14 0 -7 16 -45 35 -83 66 -133 182 -212 395 -271 92
-26 103 -26 375 -26 273 0 282 1 377 27 54 15 128 41 165 59 114 53 218 175
257 301 3 9 9 17 14 17 11 0 -4 -127 -24 -204 -45 -175 -183 -326 -339 -371
-89 -25 -152 -61 -170 -95 -18 -35 -18 -35 28 -15 46 19 118 19 199 0 196 -45
308 -36 416 34 266 172 302 619 92 1121 -30 72 -53 143 -60 190 -14 94 -74
344 -95 398 -9 22 -23 43 -31 46 -38 14 -54 -21 -54 -115 0 -27 -9 -74 -19
-104 -10 -29 -22 -72 -26 -94 -4 -23 -9 -41 -11 -41 -3 0 -35 30 -72 66 -145
142 -354 207 -662 206 -299 -1 -502 -67 -642 -207 -44 -45 -69 -63 -72 -54 -2
8 -11 34 -19 59 -21 59 -37 152 -37 211 0 80 -17 97 -58 62z m13 -261 c-10
-101 -15 -201 -11 -240 9 -92 9 -88 0 -169 -7 -76 -18 -88 -46 -55 -75 85 -69
260 18 574 13 47 29 99 36 115 l12 28 4 -40 c2 -22 -4 -118 -13 -213z m1660
211 c21 -50 70 -247 90 -357 27 -156 18 -248 -31 -306 -32 -37 -44 -38 -44 -2
0 41 -37 174 -73 265 l-31 79 32 111 c22 77 32 133 32 180 0 37 2 67 5 67 3 0
12 -17 20 -37z m-524 -86 c250 -65 401 -211 470 -455 32 -113 32 -324 1 -440
-27 -101 -61 -170 -116 -238 -80 -100 -187 -149 -394 -180 -84 -13 -153 -15
-322 -11 -261 7 -329 20 -467 87 -84 41 -108 59 -143 102 -50 63 -74 109 -108
203 -21 60 -25 93 -29 230 -6 190 4 243 72 381 77 158 210 262 401 315 115 32
179 38 369 34 141 -3 186 -8 266 -28z m-1063 -207 l23 -29 -26 -51 c-14 -27
-30 -50 -35 -50 -11 0 -13 65 -4 123 4 20 9 37 13 36 3 0 16 -13 29 -29z
m-195 -340 c6 -19 12 -84 12 -145 1 -60 8 -135 16 -165 l14 -55 3 133 c1 72 5
132 9 132 18 0 30 -36 22 -71 -11 -48 -15 -267 -6 -339 l7 -55 -30 64 c-17 35
-33 62 -35 59 -10 -10 29 -117 76 -208 54 -107 109 -176 208 -263 77 -69 88
-75 201 -113 82 -28 84 -29 45 -32 -22 -2 -83 -12 -137 -23 -203 -41 -300 -20
-408 90 -72 73 -118 154 -145 261 -21 82 -22 283 -1 391 28 147 128 444 134
399 2 -14 8 -41 15 -60z m1952 -13 c28 -65 82 -251 95 -332 13 -81 13 -312 -1
-376 -13 -60 -50 -147 -82 -191 -37 -53 -60 -78 -71 -78 -5 0 -3 6 6 12 73 61
138 272 138 455 0 155 -81 422 -140 458 -5 3 -10 13 -10 21 0 19 27 84 35 84
3 0 17 -24 30 -53z m-42 -138 c96 -190 112 -447 41 -662 -45 -135 -157 -235
-297 -263 -71 -15 -81 -14 -177 6 -60 12 -117 18 -138 15 -55 -9 -19 11 84 45
132 45 250 145 301 256 14 30 27 53 29 51 3 -2 -7 -35 -20 -73 -14 -37 -23
-70 -21 -72 7 -8 56 89 80 158 34 100 55 217 56 314 1 109 16 62 19 -59 1 -62
5 -82 10 -65 21 65 4 277 -29 364 -13 32 -5 69 12 63 7 -2 29 -37 50 -78z
m-86 -35 c13 -56 -1 -201 -21 -222 -14 -14 -37 32 -32 63 3 17 11 69 18 117
12 87 22 99 35 42z m-1698 -162 c6 -21 5 -36 -3 -48 -11 -15 -13 -15 -19 -1
-6 16 2 91 10 84 2 -3 8 -18 12 -35z"/>
<path d="M2308 2023 c-10 -2 -18 -9 -18 -14 0 -12 97 -12 104 0 11 17 -42 26
-86 14z"/>
<path d="M1635 2191 c4 -14 7 -52 5 -85 -1 -34 -3 -86 -3 -116 l-2 -55 35 0
c27 0 37 6 49 27 14 23 13 34 -3 103 -17 73 -17 77 0 96 9 10 12 19 7 19 -6 0
-16 -7 -24 -16 -10 -12 -10 -27 -1 -73 15 -74 15 -112 -2 -134 -12 -16 -17
-17 -36 -5 -19 12 -20 18 -13 63 11 72 8 174 -7 188 -10 9 -11 7 -5 -12z"/>
<path d="M1763 2169 c13 -8 17 -24 17 -74 0 -57 2 -65 19 -65 30 0 40 21 34
73 -6 54 -19 48 -18 -8 1 -19 -2 -35 -7 -35 -8 0 -16 31 -16 68 -1 26 -19 52
-36 52 -6 0 -3 -5 7 -11z"/>
<path d="M1864 2147 c3 -10 7 -80 7 -155 1 -103 3 -125 9 -90 12 69 6 220 -9
243 -11 17 -12 17 -7 2z"/>
<path d="M1952 1971 c2 -36 8 -56 17 -59 10 -4 12 0 6 14 -4 11 -9 34 -10 52
-6 57 -16 50 -13 -7z"/>
<path d="M1912 1975 c0 -16 5 -48 13 -70 17 -52 17 -35 0 40 -8 37 -13 49 -13
30z"/>
<path d="M2077 1918 c5 -58 13 -61 13 -5 0 26 -4 47 -8 47 -5 0 -7 -19 -5 -42z"/>
<path d="M2143 1865 c0 -33 2 -45 4 -27 2 18 2 45 0 60 -2 15 -4 0 -4 -33z"/>
<path d="M1007 1826 c-67 -18 -126 -62 -162 -120 -24 -40 -30 -62 -33 -121 -6
-115 42 -200 140 -249 103 -51 245 -25 314 57 114 135 75 337 -79 411 -67 32
-120 38 -180 22z m164 -69 c64 -34 102 -93 107 -166 5 -73 -9 -118 -50 -160
-45 -46 -99 -71 -153 -71 -179 0 -277 200 -169 346 54 73 178 96 265 51z"/>
<path d="M986 1727 c-115 -65 -111 -242 7 -304 82 -43 199 -4 238 80 23 53 24
91 0 142 -45 98 -154 134 -245 82z m187 -57 c23 -26 27 -39 27 -90 0 -55 -3
-62 -35 -95 -32 -31 -41 -35 -89 -35 -59 0 -96 21 -121 70 -39 75 6 172 87
189 49 11 100 -4 131 -39z"/>
<path d="M1009 1651 c-23 -24 -29 -38 -29 -74 0 -39 5 -49 35 -76 23 -20 46
-31 65 -31 19 0 42 11 65 31 30 27 35 37 35 76 0 62 -40 103 -100 103 -33 0
-48 -6 -71 -29z m118 -23 c46 -43 16 -121 -47 -121 -22 0 -39 7 -52 22 -57 72
32 162 99 99z"/>
<path d="M1048 1619 c-21 -12 -24 -59 -6 -77 7 -7 24 -12 38 -12 32 0 50 17
50 46 0 44 -43 66 -82 43z"/>
<path d="M1913 1829 c-122 -22 -223 -139 -223 -259 0 -94 72 -201 161 -239
136 -59 280 -3 345 134 87 184 -80 399 -283 364z m132 -68 c128 -58 164 -223
72 -328 -60 -68 -162 -92 -245 -58 -167 71 -169 317 -2 389 48 21 127 19 175
-3z"/>
<path d="M1872 1734 c-54 -28 -85 -77 -90 -143 -5 -64 10 -104 55 -145 54 -50
163 -54 220 -7 86 71 84 211 -4 278 -45 34 -131 42 -181 17z m128 -30 c50 -20
80 -67 80 -124 0 -79 -52 -130 -134 -130 -83 0 -139 74 -122 163 9 46 36 76
81 92 51 18 47 18 95 -1z"/>
<path d="M1864 1646 c-55 -55 -43 -125 26 -161 46 -24 78 -19 116 19 24 24 34
43 34 66 0 64 -43 109 -103 110 -31 0 -46 -7 -73 -34z m125 -22 c36 -45 24
-92 -29 -114 -25 -10 -34 -10 -55 4 -37 24 -48 60 -30 96 25 48 82 55 114 14z"/>
<path d="M1908 1618 c-42 -34 -18 -91 35 -86 42 4 60 47 32 78 -21 23 -44 26
-67 8z"/>
<path d="M1480 1341 c-19 -4 -45 -13 -56 -19 -61 -33 -111 -141 -100 -215 10
-67 51 -144 87 -166 65 -40 157 -35 222 11 83 59 94 259 19 341 -36 41 -108
60 -172 48z m103 -56 c43 -18 51 -29 33 -44 -11 -9 -12 -20 -4 -49 14 -52 25
-60 39 -28 9 19 15 23 21 14 9 -15 9 -76 0 -100 -6 -16 -11 -14 -39 12 -17 16
-34 38 -38 49 -8 25 -67 53 -101 47 -29 -6 -74 -42 -74 -61 0 -6 -13 -24 -29
-39 -24 -23 -29 -25 -35 -11 -9 24 -7 88 3 104 7 11 12 7 24 -15 l15 -29 12
30 c6 17 9 47 7 68 -5 36 -3 40 26 52 42 19 96 18 140 0z m-179 -63 c-1 -7 -2
-22 -3 -34 l-2 -23 -13 24 c-8 14 -12 31 -9 38 6 16 28 12 27 -5z m250 9 c4
-5 1 -22 -6 -38 l-11 -28 -7 30 c-3 17 -5 33 -3 38 6 10 21 9 27 -2z m-78 -88
c13 -14 22 -28 20 -30 -2 -2 -21 0 -42 5 -22 4 -57 5 -79 1 -22 -4 -41 -6 -43
-4 -8 7 14 38 32 45 43 18 86 11 112 -17z m9 -52 c22 -10 48 -27 57 -38 17
-19 16 -21 -15 -50 -61 -59 -161 -61 -219 -6 -34 32 -35 43 -5 71 47 45 116
53 182 23z"/>
<path d="M1046 1218 c15 -69 19 -194 7 -201 -5 -2 -3 -2 4 -1 7 2 15 -1 18 -7
4 -5 10 -7 15 -4 5 3 13 -3 19 -12 7 -13 8 -2 3 37 -4 30 -7 99 -7 153 0 53
-3 97 -6 97 -3 0 -10 -10 -16 -22 l-10 -23 -12 23 c-21 40 -28 23 -15 -40z"/>
<path d="M2000 1124 c0 -29 -5 -44 -16 -48 -21 -8 -37 2 -30 20 3 8 0 11 -10
7 -19 -7 -15 -32 7 -46 26 -16 69 16 69 51 0 15 -5 34 -10 42 -7 11 -10 4 -10
-26z"/>
<path d="M898 1087 c13 -16 112 -71 117 -65 2 2 -26 20 -62 41 -36 20 -61 31
-55 24z"/>
<path d="M2119 1083 c-28 -33 -156 -82 -270 -104 -147 -27 -194 -40 -119 -32
158 15 317 66 379 120 20 18 33 32 30 33 -4 0 -13 -8 -20 -17z"/>
<path d="M1140 981 c15 -9 173 -41 200 -41 35 0 -8 14 -97 31 -108 21 -125 23
-103 10z"/>
<path d="M580 706 c0 -11 92 -58 142 -72 59 -16 167 -19 213 -5 21 6 3 7 -56
4 -71 -5 -99 -2 -157 16 -40 12 -87 31 -107 42 -19 12 -35 18 -35 15z"/>
</g>
</svg>
