<?xml version="1.0" encoding="UTF-8"?>
<svg version="1.1" xmlns="http://www.w3.org/2000/svg" width="544" height="544">
<path d="M0 0 C2.99982455 2.99982455 3.10899215 5.94944433 3.17578125 10.0625 C3.67132 28.74182372 7.23802869 45.59919382 14 63 C14.969375 62.21625 15.93875 61.4325 16.9375 60.625 C17.48277344 60.18414062 18.02804688 59.74328125 18.58984375 59.2890625 C20.13266437 58.0333609 20.13266437 58.0333609 21 56 C21.66 56 22.32 56 23 56 C23.34998047 55.1646875 23.34998047 55.1646875 23.70703125 54.3125 C30.94958943 41.35904247 47.27780263 34.97575944 60 29 C60.65145996 28.69304199 61.30291992 28.38608398 61.97412109 28.06982422 C78.70364527 20.41010963 97.89666129 18.05796632 116 16 C116.74773682 15.90428711 117.49547363 15.80857422 118.26586914 15.70996094 C126.50468786 14.73915303 134.77830386 14.75731211 143.0625 14.75 C144.25311035 14.74848938 144.25311035 14.74848938 145.46777344 14.74694824 C159.48541312 14.75891589 173.15729603 15.67527109 187 18 C187.90121582 18.14985352 188.80243164 18.29970703 189.73095703 18.45410156 C206.78451617 21.38183123 221.99654971 25.98964177 237.27978516 34.12011719 C238.7209262 34.8572549 240.20661682 35.5063949 241.69921875 36.1328125 C250.01201776 39.62281407 255.91365489 46.1698283 262.27099609 52.36645508 C264.7477979 54.70651169 267.3667178 56.83829413 270 59 C271.72280002 60.62263723 273.35008999 62.30156323 275 64 C275.12761719 62.97777344 275.25523437 61.95554688 275.38671875 60.90234375 C275.95085468 57.31271449 276.76572952 54.03644346 277.8125 50.5625 C278.35460881 48.68688266 278.89670887 46.81126277 279.43847656 44.93554688 C279.99323009 43.0233356 280.55516581 41.11321271 281.1171875 39.203125 C283.43155077 30.95644742 284.50105696 23.13274505 284.67260742 14.55786133 C284.78790562 9.68455604 285.46133457 5.63446028 287 1 C294.07548973 -0.55900621 294.07548973 -0.55900621 297.6875 1.625 C304.69779365 10.16966056 306.54626336 23.31227277 309 33.875 C309.34622835 35.33921812 309.69291427 36.80332812 310.04003906 38.26733398 C310.88826622 41.85964598 311.7235165 45.45479413 312.55151367 49.05181885 C312.96020465 50.82713287 313.37156038 52.60183292 313.78320312 54.37646484 C315.74633786 62.89204025 317.67051906 71.37840254 318.875 80.0390625 C320.71262967 93.13334385 324.02875932 103.59128314 329.79882812 115.4453125 C336.56356617 129.83275537 341.08730105 145.10799182 345.375 160.375 C345.58623505 161.1184668 345.79747009 161.86193359 346.0151062 162.62792969 C349.12673056 173.65031624 351.39048328 184.6608606 353 196 C353.19553467 197.33889282 353.19553467 197.33889282 353.39501953 198.70483398 C358.15200556 237.67100963 352.98489591 277.01229674 328.41015625 308.55859375 C327.94480469 309.03425781 327.47945313 309.50992187 327 310 C326.34 310 325.68 310 325 310 C324.67 310.99 324.34 311.98 324 313 C307.4475913 327.53074046 288.39093755 333.49498826 266.76269531 332.23632812 C253.7000394 331.11891465 240.66805675 328.43789606 227.97021484 325.21972656 C219.83799444 323.24382163 212.69080701 323.71994333 204.6875 326 C200.69367027 327.10586866 197.19339998 328 193 328 C194.58535121 321.50006004 197.70780932 317.21991026 203.21875 313.50390625 C210.16125839 309.73657449 217.50566931 307.47178089 225 305.0625 C246.43281188 298.10567887 265.49241759 284.56670556 276.20849609 264.19189453 C285.29767553 246.15415588 291.5183363 226.41447577 291 206 C290.70867187 206.73863281 290.41734375 207.47726562 290.1171875 208.23828125 C284.55702018 221.99882114 277.84284508 233.69929718 267 244 C266.42894531 244.61488281 265.85789062 245.22976563 265.26953125 245.86328125 C241.81594348 270.72127548 199.19984411 275.98939598 167 277 C86.34460535 278.85867734 86.34460535 278.85867734 51 263 C50.26942383 262.68160156 49.53884766 262.36320312 48.78613281 262.03515625 C38.94312124 257.7236566 29.88710997 253.46726381 22 246 C21.32195312 245.39929688 20.64390625 244.79859375 19.9453125 244.1796875 C10.21074368 235.12691727 4.26324914 224.27543124 -0.6875 212.140625 C-1.6897378 209.18367218 -1.6897378 209.18367218 -3 208 C-0.80199902 225.95927631 2.15200689 242.64539924 9.875 259.125 C10.27340088 259.97771484 10.67180176 260.83042969 11.08227539 261.70898438 C20.44607453 280.75450672 38.63887363 297.02214189 58.70996094 303.93310547 C62.86152628 305.30292147 67.01349814 306.66204335 71.19628906 307.93383789 C81.03524387 311.02152682 89.78158248 314.74151731 95 324 C95.8125 326.9375 95.8125 326.9375 96 329 C90.12454604 328.23006138 84.4550411 326.99214532 78.6953125 325.62109375 C68.36445102 323.88472274 58.99275176 326.24088659 48.9375 328.4375 C46.65569368 328.92948348 44.37336 329.41877471 42.09022522 329.90455627 C40.67906685 330.20546758 39.26870499 330.51015079 37.85935974 330.81944275 C15.78163331 335.5693257 -5.61479701 334.35901468 -25 322 C-43.81169508 308.98068297 -54.56605092 289.61731585 -60.75 268 C-60.94875732 267.31333252 -61.14751465 266.62666504 -61.35229492 265.91918945 C-64.81705486 253.10418154 -65.37413178 240.24511595 -65.3125 227.0625 C-65.31067719 226.25185089 -65.30885437 225.44120178 -65.30697632 224.60598755 C-65.22943758 204.05872607 -62.63975823 184.76140428 -57 165 C-56.81419373 164.34481384 -56.62838745 163.68962769 -56.43695068 163.0145874 C-42.97650394 115.58784907 -42.97650394 115.58784907 -34.625 100.9375 C-31.75069227 95.4182176 -31.37150389 90.17479871 -30.95629883 84.09033203 C-29.3201743 63.83023678 -23.66866066 43.3715812 -18.3125 23.8125 C-18.05186768 22.84739502 -17.79123535 21.88229004 -17.52270508 20.88793945 C-13.1811482 5.70397597 -13.1811482 5.70397597 -7.5 0.875 C-4.76995176 -0.08051688 -2.86730599 -0.38747378 0 0 Z " fill="#FDFDFC" transform="translate(130,112)"/>
<path d="M0 0 C2.99982455 2.99982455 3.10899215 5.94944433 3.17578125 10.0625 C3.67132 28.74182372 7.23802869 45.59919382 14 63 C14.969375 62.21625 15.93875 61.4325 16.9375 60.625 C17.48277344 60.18414062 18.02804688 59.74328125 18.58984375 59.2890625 C20.13266437 58.0333609 20.13266437 58.0333609 21 56 C21.66 56 22.32 56 23 56 C23.34998047 55.1646875 23.34998047 55.1646875 23.70703125 54.3125 C30.94958943 41.35904247 47.27780263 34.97575944 60 29 C60.65145996 28.69304199 61.30291992 28.38608398 61.97412109 28.06982422 C78.70364527 20.41010963 97.89666129 18.05796632 116 16 C116.74773682 15.90428711 117.49547363 15.80857422 118.26586914 15.70996094 C126.50468786 14.73915303 134.77830386 14.75731211 143.0625 14.75 C144.25311035 14.74848938 144.25311035 14.74848938 145.46777344 14.74694824 C159.48541312 14.75891589 173.15729603 15.67527109 187 18 C187.90121582 18.14985352 188.80243164 18.29970703 189.73095703 18.45410156 C206.78451617 21.38183123 221.99654971 25.98964177 237.27978516 34.12011719 C238.7209262 34.8572549 240.20661682 35.5063949 241.69921875 36.1328125 C250.01201776 39.62281407 255.91365489 46.1698283 262.27099609 52.36645508 C264.7477979 54.70651169 267.3667178 56.83829413 270 59 C271.72280002 60.62263723 273.35008999 62.30156323 275 64 C275.12761719 62.97777344 275.25523437 61.95554688 275.38671875 60.90234375 C275.95085468 57.31271449 276.76572952 54.03644346 277.8125 50.5625 C278.35460881 48.68688266 278.89670887 46.81126277 279.43847656 44.93554688 C279.99323009 43.0233356 280.55516581 41.11321271 281.1171875 39.203125 C283.43155077 30.95644742 284.50105696 23.13274505 284.67260742 14.55786133 C284.78790562 9.68455604 285.46133457 5.63446028 287 1 C294.07548973 -0.55900621 294.07548973 -0.55900621 297.6875 1.625 C304.69779365 10.16966056 306.54626336 23.31227277 309 33.875 C309.34622835 35.33921812 309.69291427 36.80332812 310.04003906 38.26733398 C310.88826622 41.85964598 311.7235165 45.45479413 312.55151367 49.05181885 C312.96020465 50.82713287 313.37156038 52.60183292 313.78320312 54.37646484 C315.74633786 62.89204025 317.67051906 71.37840254 318.875 80.0390625 C320.71262967 93.13334385 324.02875932 103.59128314 329.79882812 115.4453125 C336.56356617 129.83275537 341.08730105 145.10799182 345.375 160.375 C345.58623505 161.1184668 345.79747009 161.86193359 346.0151062 162.62792969 C349.12673056 173.65031624 351.39048328 184.6608606 353 196 C353.19553467 197.33889282 353.19553467 197.33889282 353.39501953 198.70483398 C358.15200556 237.67100963 352.98489591 277.01229674 328.41015625 308.55859375 C327.94480469 309.03425781 327.47945313 309.50992187 327 310 C326.34 310 325.68 310 325 310 C324.67 310.99 324.34 311.98 324 313 C307.4475913 327.53074046 288.39093755 333.49498826 266.76269531 332.23632812 C253.7000394 331.11891465 240.66805675 328.43789606 227.97021484 325.21972656 C219.83799444 323.24382163 212.69080701 323.71994333 204.6875 326 C200.69367027 327.10586866 197.19339998 328 193 328 C194.58535121 321.50006004 197.70780932 317.21991026 203.21875 313.50390625 C210.16125839 309.73657449 217.50566931 307.47178089 225 305.0625 C246.43281188 298.10567887 265.49241759 284.56670556 276.20849609 264.19189453 C285.29767553 246.15415588 291.5183363 226.41447577 291 206 C290.70867187 206.73863281 290.41734375 207.47726562 290.1171875 208.23828125 C284.55702018 221.99882114 277.84284508 233.69929718 267 244 C266.42894531 244.61488281 265.85789062 245.22976563 265.26953125 245.86328125 C241.81594348 270.72127548 199.19984411 275.98939598 167 277 C86.34460535 278.85867734 86.34460535 278.85867734 51 263 C50.26942383 262.68160156 49.53884766 262.36320312 48.78613281 262.03515625 C38.94312124 257.7236566 29.88710997 253.46726381 22 246 C21.32195312 245.39929688 20.64390625 244.79859375 19.9453125 244.1796875 C10.21074368 235.12691727 4.26324914 224.27543124 -0.6875 212.140625 C-1.6897378 209.18367218 -1.6897378 209.18367218 -3 208 C-0.80199902 225.95927631 2.15200689 242.64539924 9.875 259.125 C10.27340088 259.97771484 10.67180176 260.83042969 11.08227539 261.70898438 C20.44607453 280.75450672 38.63887363 297.02214189 58.70996094 303.93310547 C62.86152628 305.30292147 67.01349814 306.66204335 71.19628906 307.93383789 C81.03524387 311.02152682 89.78158248 314.74151731 95 324 C95.8125 326.9375 95.8125 326.9375 96 329 C90.12454604 328.23006138 84.4550411 326.99214532 78.6953125 325.62109375 C68.36445102 323.88472274 58.99275176 326.24088659 48.9375 328.4375 C46.65569368 328.92948348 44.37336 329.41877471 42.09022522 329.90455627 C40.67906685 330.20546758 39.26870499 330.51015079 37.85935974 330.81944275 C15.78163331 335.5693257 -5.61479701 334.35901468 -25 322 C-43.81169508 308.98068297 -54.56605092 289.61731585 -60.75 268 C-60.94875732 267.31333252 -61.14751465 266.62666504 -61.35229492 265.91918945 C-64.81705486 253.10418154 -65.37413178 240.24511595 -65.3125 227.0625 C-65.31067719 226.25185089 -65.30885437 225.44120178 -65.30697632 224.60598755 C-65.22943758 204.05872607 -62.63975823 184.76140428 -57 165 C-56.81419373 164.34481384 -56.62838745 163.68962769 -56.43695068 163.0145874 C-42.97650394 115.58784907 -42.97650394 115.58784907 -34.625 100.9375 C-31.75069227 95.4182176 -31.37150389 90.17479871 -30.95629883 84.09033203 C-29.3201743 63.83023678 -23.66866066 43.3715812 -18.3125 23.8125 C-18.05186768 22.84739502 -17.79123535 21.88229004 -17.52270508 20.88793945 C-13.1811482 5.70397597 -13.1811482 5.70397597 -7.5 0.875 C-4.76995176 -0.08051688 -2.86730599 -0.38747378 0 0 Z M26.78515625 62.15234375 C22.03077361 67.2517156 18.50019498 73.21935675 15.02490234 79.23486328 C14.34797332 80.4007034 13.66093685 81.56073985 12.96337891 82.71435547 C6.46786577 93.47703864 2.81627573 104.77677174 0 117 C-0.16813202 117.72045502 -0.33626404 118.44091003 -0.50949097 119.18319702 C-1.83519446 125.23986275 -2.3202136 130.99697883 -2.3359375 137.1875 C-2.3425943 138.12948242 -2.3492511 139.07146484 -2.35610962 140.04199219 C-2.36616911 142.02520824 -2.37092874 144.00845768 -2.37060547 145.99169922 C-2.37494904 148.96511423 -2.41125944 151.93700569 -2.44921875 154.91015625 C-2.52106712 167.12177149 -1.3123014 178.24320749 2 190 C2.20379272 190.72941803 2.40758545 191.45883606 2.61755371 192.21035767 C6.99451788 207.70928133 13.27679688 222.74491072 24 235 C24.66 235 25.32 235 26 235 C26.25894043 235.59047119 26.51788086 236.18094238 26.78466797 236.78930664 C30.88570243 244.24910315 39.58740872 248.34407904 46.875 252.0625 C47.8851416 252.58126709 48.8952832 253.10003418 49.93603516 253.63452148 C79.06821935 268.25116636 110.73453679 269.41680615 142.8125 269.25 C143.90085144 269.24656586 144.98920288 269.24313171 146.11053467 269.23959351 C185.11045902 269.09565731 231.16762189 268.71063201 260.58349609 239.45996094 C274.23635789 225.38824195 281.18329284 209.17295262 286.3125 190.5625 C286.69438477 189.17756348 286.69438477 189.17756348 287.08398438 187.76464844 C289.31895386 179.35154124 290.15837926 171.30539246 290.203125 162.62890625 C290.20882507 161.74831039 290.21452515 160.86771454 290.22039795 159.96043396 C290.22979704 158.10229676 290.23636153 156.24414327 290.24023438 154.38598633 C290.24986541 151.60141256 290.28090679 148.81760194 290.3125 146.03320312 C290.49865623 114.67782875 280.78084863 83.18731733 258.94140625 59.9375 C240.50254982 41.53574388 219.08350576 31.93552197 194 26 C193.33516602 25.82452637 192.67033203 25.64905273 191.98535156 25.46826172 C176.44891423 21.57471119 160.21879676 21.62520528 144.3125 21.6875 C142.78938705 21.69123123 142.78938705 21.69123123 141.23550415 21.69503784 C97.86738776 21.85943232 58.53931704 31.29424394 26.78515625 62.15234375 Z " fill="#050304" transform="translate(130,112)"/>
<path d="M0 0 C0.33 0 0.66 0 1 0 C1.26554687 1.03640625 1.53109375 2.0728125 1.8046875 3.140625 C2.16122447 4.51047756 2.5180083 5.88026588 2.875 7.25 C3.04902344 7.93191406 3.22304687 8.61382812 3.40234375 9.31640625 C4.38049702 13.19326898 4.38049702 13.19326898 6.05908203 16.79614258 C7.38823021 19.90932904 7.1883133 22.55842325 7.125 25.93359375 C7.11742676 26.60737564 7.10985352 27.28115753 7.10205078 27.97535706 C7.06967128 30.83960035 7.01414111 33.70325649 6.95898438 36.56713867 C6.79472844 45.90919502 7.24950718 54.7869966 9 64 C9.19078125 65.0717749 9.3815625 66.1435498 9.578125 67.24780273 C10.03968521 69.83439438 10.51360844 72.41798524 11 75 C11.01981934 74.12375977 11.03963867 73.24751953 11.06005859 72.34472656 C11.13904139 69.03443082 11.2257524 65.72451173 11.31738281 62.41455078 C11.35522034 60.99307816 11.39014384 59.57152439 11.421875 58.14990234 C11.62193949 49.2907968 12.23705688 40.71320656 14 32 C16.5390625 33.41015625 16.5390625 33.41015625 19 36 C19.39452972 39.20655227 18.8530097 42.25818639 18.375 45.4375 C18.14141285 47.33279376 17.91237347 49.22865264 17.6875 51.125 C17.56761719 52.09695313 17.44773438 53.06890625 17.32421875 54.0703125 C16.44553978 62.01018271 16.25796737 70.01987209 16 78 C15.95746094 79.26457031 15.91492188 80.52914062 15.87109375 81.83203125 C15.73507284 89.76658421 16.51580601 97.43728143 17.5625 105.28515625 C17.911557 108.24902413 18.09279329 111.02481516 18 114 C14.69330664 111.26307534 13.13219468 107.60004821 11.3125 103.8125 C10.99216797 103.15830078 10.67183594 102.50410156 10.34179688 101.83007812 C9.55571708 100.22272093 8.77711317 98.61171142 8 97 C10.02803407 110.40924017 15.85501219 122.26006654 22.05078125 134.17089844 C22.88967658 135.78741177 23.71175997 137.41262565 24.53125 139.0390625 C30.95590592 151.42437142 41.17135738 166.11423825 53 174 C53 174.66 53 175.32 53 176 C53.87978516 176.39638672 53.87978516 176.39638672 54.77734375 176.80078125 C57.07971031 178.04300714 58.66474615 179.39631548 60.5625 181.1875 C72.06281848 191.428971 85.31715106 195.93566445 99.75976562 200.44335938 C100.65244141 200.73146484 101.54511719 201.01957031 102.46484375 201.31640625 C103.265271 201.56849854 104.06569824 201.82059082 104.89038086 202.08032227 C107.14818522 203.06460059 108.39269596 204.15722898 110 206 C108.77410156 206.08636719 107.54820312 206.17273438 106.28515625 206.26171875 C97.38587327 206.96475509 88.7647229 207.94568744 80.05151367 209.93139648 C69.57319264 212.31309983 59.50749406 213.52964195 48.75 213.625 C47.57308594 213.64771973 46.39617187 213.67043945 45.18359375 213.69384766 C32.73998353 213.58639292 22.16539036 208.95963817 12 202 C11.19046875 201.44957031 10.3809375 200.89914062 9.546875 200.33203125 C-5.59271008 189.16777747 -15.41859194 171.67028741 -21 154 C-21.53947266 152.35644531 -21.53947266 152.35644531 -22.08984375 150.6796875 C-24.93579835 141.78734537 -26.15707616 133.62279926 -26.23828125 124.31640625 C-26.24834702 123.39288361 -26.25841278 122.46936096 -26.26878357 121.51785278 C-26.62473306 80.32830183 -19.66184055 36.98762084 0 0 Z " fill="#B1F8E4" transform="translate(98,226)"/>
<path d="M0 0 C9.60237139 8.17701939 15.82700853 17.74121374 18.75 30.1875 C20.02097395 46.23148279 16.88782779 57.83484073 6.85546875 70.59765625 C-1.41893458 79.82132191 -13.37646598 85.5674707 -25.66015625 86.42578125 C-41.31764541 86.74395483 -52.54945918 82.47550067 -64 71.875 C-72.71082455 62.63127795 -77.32835816 50.8367551 -77.75 38.1875 C-77.26547619 24.10504992 -71.68906627 12.11145778 -61.5625 2.375 C-43.88504217 -12.61591409 -18.67393848 -14.45273382 0 0 Z " fill="#020202" transform="translate(223.25,220.8125)"/>
<path d="M0 0 C9.31002305 10.34447005 14.26499613 22.05457846 14 36 C13.18592757 50.28018717 7.38210351 61.27520499 -3 71 C-14.51871253 81.00208205 -27.28913538 83.00479758 -42 82 C-53.38283913 80.9175309 -63.31872691 74.17635514 -71 66 C-80.51708934 54.25234285 -82.64896539 41.79308285 -82 27 C-80.50130945 14.2326742 -72.86874559 3.67838223 -63.17578125 -4.43359375 C-43.40038432 -18.6704594 -17.86981355 -16.33652221 0 0 Z " fill="#020202" transform="translate(389,225)"/>
<path d="M0 0 C16.4846652 15.25829737 23.38101669 45.27971987 25 67 C25.19227115 72.27124556 25.24500266 77.53846708 25.25 82.8125 C25.25151062 83.91556992 25.25151062 83.91556992 25.25305176 85.04092407 C25.23755507 101.77985771 23.19527553 117.04041259 18 133 C17.64164062 134.18335938 17.28328125 135.36671875 16.9140625 136.5859375 C10.52624781 156.34957894 -4.59508982 169.90829373 -22.55078125 179.33984375 C-37.02076135 185.78445674 -52.80665522 186.39097644 -67.9375 182.5625 C-78.65981294 180.01889528 -89.00438487 179.13247729 -100 179 C-97.31758129 176.83484273 -94.9561281 175.44422152 -91.69140625 174.3515625 C-90.86850098 174.07143311 -90.0455957 173.79130371 -89.19775391 173.50268555 C-87.89330322 173.0682312 -87.89330322 173.0682312 -86.5625 172.625 C-84.74841237 171.9995255 -82.93460989 171.37322332 -81.12109375 170.74609375 C-78.18150486 169.73861891 -75.23883723 168.75108137 -72.28515625 167.78515625 C-51.32937761 160.50632584 -34.23037687 142.98631763 -24.625 123.4375 C-23.97117482 122.06128311 -23.31751689 120.68498674 -22.6640625 119.30859375 C-21 116 -21 116 -19 114 C-20.43066697 122.1698614 -22.64137417 130.05394988 -25 138 C-13.84873612 125.38513274 -9.17563429 106.17564572 -6 90 C-5.78585449 88.9164624 -5.78585449 88.9164624 -5.56738281 87.81103516 C-2.75288434 72.97008986 -2.30818042 58.07189526 -2 43 C-1.34 43 -0.68 43 0 43 C2.06134225 53.96714131 2.57834581 64.87054854 3 76 C6.85244897 55.1814042 4.96239185 29.91550185 -3.13671875 10.23828125 C-4.16192302 7.58017244 -4.09141774 6.60261153 -3 4 C-1.4375 1.75 -1.4375 1.75 0 0 Z " fill="#B3F6E4" transform="translate(439,252)"/>
<path d="M0 0 C6.86415226 6.07351692 9.62070478 13.90598746 10.9375 22.8125 C11.76677832 37.57365415 10.27282059 49.46270308 1.9375 61.8125 C-0.81172099 64.61990556 -3.46464516 66.27675473 -7.0625 67.8125 C-7.75988281 68.1321875 -8.45726562 68.451875 -9.17578125 68.78125 C-16.96524587 71.8571629 -27.07283607 73.23774104 -35.1640625 70.66015625 C-43.50669424 66.93515401 -49.5720779 61.51663511 -53.24609375 53.1015625 C-54.27145447 50.35975546 -55.18398134 47.60433092 -56.0625 44.8125 C-56.475 43.69875 -56.8875 42.585 -57.3125 41.4375 C-59.66883037 30.04856987 -58.20410487 18.72093902 -52.19140625 8.69140625 C-47.18621528 1.56681495 -42.40073084 -3.21965513 -34.0625 -6.1875 C-21.6449171 -8.3556494 -10.4722975 -7.4802125 0 0 Z " fill="#070506" transform="translate(298.0625,307.1875)"/>
<path d="M0 0 C6.22150554 -0.05015476 12.44288848 -0.08606925 18.66455078 -0.10986328 C20.7726446 -0.11980258 22.88072509 -0.1333587 24.98876953 -0.15087891 C42.61724303 -0.29351767 59.52122861 0.45103715 76.6875 4.75 C77.74477295 5.0087793 78.8020459 5.26755859 79.89135742 5.53417969 C89.75124821 8.03287268 98.91007597 11.42403717 108 16 C108.16820455 22.35358375 108.32809887 28.7073374 108.48217773 35.0612793 C108.53559441 37.22343701 108.59092351 39.38554834 108.64819336 41.54760742 C108.73011333 44.6527303 108.80518663 47.75795422 108.87890625 50.86328125 C108.90594131 51.83211746 108.93297638 52.80095367 108.96083069 53.79914856 C108.98092697 54.6998558 109.00102325 55.60056305 109.02172852 56.52856445 C109.04171402 57.32132278 109.06169952 58.11408112 109.08229065 58.93086243 C109 61 109 61 108 64 C106.35 64 104.7 64 103 64 C102.93941406 62.73542969 102.87882812 61.47085938 102.81640625 60.16796875 C102.73199096 58.50780129 102.64734345 56.84764563 102.5625 55.1875 C102.52318359 54.35412109 102.48386719 53.52074219 102.44335938 52.66210938 C102.40146484 51.85966797 102.35957031 51.05722656 102.31640625 50.23046875 C102.27974854 49.49207764 102.24309082 48.75368652 102.20532227 47.99291992 C102.05157859 45.792505 102.05157859 45.792505 101 43 C100.34 43 99.68 43 99 43 C98.51295508 52.69159543 98.51295508 52.69159543 99.9375 62.1875 C101.40313852 67.44655588 101.62881287 72.55592206 102 78 C95.07 78.99 95.07 78.99 88 80 C86.71593461 77.43186921 86.90720832 75.66165915 86.94995117 72.78759766 C86.96293747 71.69951813 86.97592377 70.6114386 86.98930359 69.49038696 C87.00701309 68.31019989 87.0247226 67.13001282 87.04296875 65.9140625 C87.06535688 63.43229965 87.08681229 60.95052825 87.10742188 58.46875 C87.14455096 54.54241058 87.18762813 50.6165024 87.24682617 46.69042969 C87.30120845 42.91074287 87.33038672 39.13154219 87.35546875 35.3515625 C87.37925095 34.17542389 87.40303314 32.99928528 87.42753601 31.7875061 C87.43283073 30.14593033 87.43283073 30.14593033 87.43823242 28.47119141 C87.4560804 27.02796005 87.4560804 27.02796005 87.47428894 25.55557251 C86.86818315 22.28974199 85.49859589 21.10016033 83 19 C81.08523817 22.82952367 82.14879538 28.09548536 82.390625 32.34765625 C82.5488053 38.40793911 82.5488053 38.40793911 79.62109375 41.56640625 C77 43 77 43 74.8125 43.0625 C72.13432646 41.4925362 71.88582139 39.96061192 71 37 C70.95128172 33.57232096 71.04823479 30.21343082 71.25390625 26.79492188 C71.36667458 23.26261972 71.30090274 21.40268802 69.15234375 18.52734375 C66.50130001 16.64611308 65.18710691 16.50967586 62 17 C58.87250332 18.59099933 58.87250332 18.59099933 58.56640625 20.85546875 C58.55486938 27.74297802 60.13608221 33.84677032 62.125 40.38671875 C63.69438379 46.86743307 63.43850324 51.26916126 60 57 C59.4121875 58.175625 59.4121875 58.175625 58.8125 59.375 C57 61 57 61 53.125 61.5625 C49.95916812 61.36390538 48.83540324 60.90055612 46 59.1875 C42.80840763 54.10089966 43.17402188 48.69954908 44.46484375 42.91796875 C44.64144531 42.26441406 44.81804687 41.61085937 45 40.9375 C47.89752377 29.26341871 46.72647851 16.9537002 42 6 C41.34 4.35 40.68 2.7 40 1 C26.8 1 13.6 1 0 1 C0 0.67 0 0.34 0 0 Z " fill="#F9ADCE" transform="translate(251,134)"/>
<path d="M0 0 C9.60237139 8.17701939 15.82700853 17.74121374 18.75 30.1875 C20.02097395 46.23148279 16.88782779 57.83484073 6.85546875 70.59765625 C-1.41893458 79.82132191 -13.37646598 85.5674707 -25.66015625 86.42578125 C-41.31764541 86.74395483 -52.54945918 82.47550067 -64 71.875 C-72.71082455 62.63127795 -77.32835816 50.8367551 -77.75 38.1875 C-77.26547619 24.10504992 -71.68906627 12.11145778 -61.5625 2.375 C-43.88504217 -12.61591409 -18.67393848 -14.45273382 0 0 Z M-57.25 11.1875 C-64.16066332 19.42920548 -67.83302346 27.28221445 -67.6875 38.0625 C-67.67992676 38.85188965 -67.67235352 39.6412793 -67.66455078 40.45458984 C-67.36083634 51.23091042 -63.09568186 59.24553632 -55.58984375 66.875 C-47.30971553 74.41953596 -37.60641908 77.72357973 -26.44140625 77.5 C-15.30565526 76.40959599 -7.12486718 71.43561706 0.4375 63.5 C8.63704171 53.43863574 10.28154038 43.29641982 9.12255859 30.60107422 C7.69469936 21.3508669 2.38967465 13.583342 -4.83984375 7.8046875 C-21.47545765 -3.35762069 -42.53083518 -3.39280477 -57.25 11.1875 Z " fill="#050505" transform="translate(223.25,220.8125)"/>
<path d="M0 0 C9.31002305 10.34447005 14.26499613 22.05457846 14 36 C13.18592757 50.28018717 7.38210351 61.27520499 -3 71 C-14.51871253 81.00208205 -27.28913538 83.00479758 -42 82 C-53.38283913 80.9175309 -63.31872691 74.17635514 -71 66 C-80.51708934 54.25234285 -82.64896539 41.79308285 -82 27 C-80.50130945 14.2326742 -72.86874559 3.67838223 -63.17578125 -4.43359375 C-43.40038432 -18.6704594 -17.86981355 -16.33652221 0 0 Z M-63.7890625 9.01953125 C-72.3481881 20.04520289 -73.0062628 30.48352298 -72 44 C-70.11584669 54.1718817 -62.11936774 62.0824947 -54 68 C-51.46434038 69.26018155 -51.46434038 69.26018155 -48.875 70.1875 C-48.02679688 70.51105469 -47.17859375 70.83460938 -46.3046875 71.16796875 C-37.11401328 74.48595792 -27.88665039 73.73671994 -18.7890625 70.328125 C-8.96031944 65.64777116 -1.18995102 57.41147131 3.08203125 47.4296875 C5.54772468 38.21743717 5.93267872 26.19313802 1.12890625 17.70703125 C0.75636719 17.14371094 0.38382812 16.58039063 0 16 C-0.598125 14.96875 -1.19625 13.9375 -1.8125 12.875 C-8.3891671 4.23138038 -16.89379568 -2.47100667 -28 -4 C-42.54725893 -5.01415177 -53.80589427 -2.24967831 -63.7890625 9.01953125 Z " fill="#050505" transform="translate(389,225)"/>
<path d="M0 0 C6.27 0 12.54 0 19 0 C18 6 18 6 17.44799805 7.94384766 C16.37148287 12.88467101 16.81412736 18.15862986 16.81469727 23.20458984 C16.8125423 25.33322116 16.79446177 27.46130624 16.77539062 29.58984375 C16.73965773 38.58275416 17.45557817 47.11848072 19 56 C25.81899316 57.98792134 32.68051215 59.64383539 39.625 61.125 C40.41173096 61.29547852 41.19846191 61.46595703 42.0090332 61.64160156 C48.98268892 63.1039252 55.86317462 64.31940641 63 63.6875 C68.16385318 63.59957061 70.80941503 65.53703408 74.8671875 68.52734375 C81.77685829 73.29830692 90.05987627 72.31249407 98 71 C103.06130528 69.57436789 107.61698073 67.92201285 112 65 C114.05517578 64.66870117 114.05517578 64.66870117 116.4453125 64.54296875 C117.34523926 64.4850415 118.24516602 64.42711426 119.17236328 64.36743164 C120.1467334 64.3080542 121.12110352 64.24867676 122.125 64.1875 C134.10822487 63.30865384 145.6461216 61.15041223 157.3671875 58.56982422 C159.55316603 58.09670906 161.7384558 57.66032831 163.9375 57.25390625 C172.66793003 55.53135817 180.11949285 51.99635795 188 48 C188.98097656 47.53722656 189.96195313 47.07445312 190.97265625 46.59765625 C198.8966763 42.66414989 204.68983632 37.06374166 211 31 C212.49016872 29.65568792 213.98876132 28.32058148 215.5 27 C216.0878125 26.484375 216.675625 25.96875 217.28125 25.4375 C219.13736924 23.88510936 221.05227489 22.43516587 223 21 C217.86100721 35.94979721 203.27046895 51.83819883 189.5 59.1875 C157.56879571 73.85640349 123.3424827 75.1410454 88.8125 75.25 C87.76475403 75.2554483 86.71700806 75.26089661 85.63751221 75.26651001 C59.48059365 75.36758793 32.64036664 74.62081731 8 65 C7 64 7 64 6.93408203 60.74389648 C6.95472605 59.28623457 6.97964201 57.82862964 7.0078125 56.37109375 C7.02537684 54.76107453 7.04228027 53.151048 7.05859375 51.54101562 C7.08913183 49.01386827 7.12407131 46.48709669 7.17138672 43.96020508 C7.42361686 29.73754259 7.21042959 15.68041065 0 3 C0 2.01 0 1.02 0 0 Z " fill="#B9B9B9" transform="translate(184,306)"/>
<path d="M0 0 C0.66 0 1.32 0 2 0 C8.24216788 10.86599593 10.7863754 23.63222996 13.54858398 35.7590332 C14.6110267 40.41669179 15.79570051 45.01845639 17.0625 49.625 C21.09306389 64.52539171 23.18734368 78.93021645 23.25 94.375 C23.270625 95.63828125 23.29125 96.9015625 23.3125 98.203125 C23.35293128 107.92684825 22.42076841 116.38116474 16.6875 124.5 C16.13449219 125.3146875 15.58148438 126.129375 15.01171875 126.96875 C12.54464265 129.4597783 10.35659775 130.12889424 7 131 C6.92072266 130.36835938 6.84144531 129.73671875 6.75976562 129.0859375 C4.11421755 108.79853019 -0.76216255 89.5595162 -9.96875 71.1953125 C-12.80338132 62.4122503 -10.31398788 54.3329636 -7.625 45.8125 C-7.30789063 44.77158203 -6.99078125 43.73066406 -6.6640625 42.65820312 C-5.40327522 38.52124488 -4.12174177 34.39096268 -2.8359375 30.26171875 C-1.04530605 23.27490912 -0.77361168 16.1740559 -0.4375 9 C-0.39431641 8.12988281 -0.35113281 7.25976562 -0.30664062 6.36328125 C-0.20175782 4.24231781 -0.10049925 2.12117567 0 0 Z " fill="#FAFAF8" transform="translate(421,119)"/>
<path d="M0 0 C5.05997685 1.68665895 8.50696598 3.43232062 12.6875 6.5 C13.2954541 6.94214844 13.9034082 7.38429687 14.52978516 7.83984375 C29.6457332 19.01749163 43.83586517 33.46986914 49 52 C48.01 51.67 47.02 51.34 46 51 C45.67 50.01 45.34 49.02 45 48 C43.35 48 41.7 48 40 48 C40 61.53 40 75.06 40 89 C38.38851587 86.85135449 36.79286942 84.68762987 35.30859375 82.44921875 C27.18571597 70.45991898 16.48974214 64.11557825 2.28125 61.25 C-0.80922026 60.76627422 -3.89085536 60.3409373 -7 60 C-7.04898437 59.29875 -7.09796875 58.5975 -7.1484375 57.875 C-7.54715136 52.81545866 -8.20216899 48.28346341 -9.58984375 43.390625 C-10.56457816 37.70931588 -10.13476921 31.75015298 -10 26 C-8.68 26 -7.36 26 -6 26 C-5.07811539 28.76565382 -4.88214778 30.38283702 -4.90234375 33.23046875 C-4.90556641 34.03291016 -4.90878906 34.83535156 -4.91210938 35.66210938 C-4.92467773 36.91217773 -4.92467773 36.91217773 -4.9375 38.1875 C-4.94201172 39.03248047 -4.94652344 39.87746094 -4.95117188 40.74804688 C-4.96294597 42.83206155 -4.9808811 44.91603977 -5 47 C-3.35 47 -1.7 47 0 47 C0 31.49 0 15.98 0 0 Z " fill="#B3F8E5" transform="translate(359,151)"/>
<path d="M0 0 C3.07482055 1.96788515 5.66600002 4.18902454 8 7 C8 7.66 8 8.32 8 9 C8.58652344 9.26425781 9.17304688 9.52851563 9.77734375 9.80078125 C12.07971031 11.04300714 13.66474615 12.39631548 15.5625 14.1875 C27.06281848 24.428971 40.31715106 28.93566445 54.75976562 33.44335938 C55.65244141 33.73146484 56.54511719 34.01957031 57.46484375 34.31640625 C58.66548462 34.69454468 58.66548462 34.69454468 59.89038086 35.08032227 C62.14818522 36.06460059 63.39269596 37.15722898 65 39 C63.77410156 39.08636719 62.54820312 39.17273438 61.28515625 39.26171875 C52.38587327 39.96475509 43.7647229 40.94568744 35.05151367 42.93139648 C24.57319264 45.31309983 14.50749406 46.52964195 3.75 46.625 C1.98462891 46.65907959 1.98462891 46.65907959 0.18359375 46.69384766 C-12.26001647 46.58639292 -22.83460964 41.95963817 -33 35 C-33.80953125 34.44957031 -34.6190625 33.89914062 -35.453125 33.33203125 C-45.10332593 26.21576673 -53.3441724 16.08530382 -58 5 C-57.34 5 -56.68 5 -56 5 C-54.97350723 6.12525155 -54.00412304 7.30282645 -53.0625 8.5 C-46.37182144 16.3404225 -36.64112226 23.26543238 -27 27 C-23.59400295 26.61554883 -22.32023175 25.42569683 -20 23 C-19.34 23 -18.68 23 -18 23 C-18 22.34 -18 21.68 -18 21 C-16.4609375 19.44921875 -16.4609375 19.44921875 -14.375 17.6875 C-13.64796875 17.07132812 -12.9209375 16.45515625 -12.171875 15.8203125 C-11.45515625 15.21960938 -10.7384375 14.61890625 -10 14 C-9.40703125 13.48179687 -8.8140625 12.96359375 -8.203125 12.4296875 C-4.24428571 9 -4.24428571 9 -2 9 C-2 8.34 -2 7.68 -2 7 C-2.59167969 7.15597656 -3.18335938 7.31195313 -3.79296875 7.47265625 C-12.46212442 9.60812526 -12.46212442 9.60812526 -16 8 C-17.3125 5.4375 -17.3125 5.4375 -18 3 C-12.23191462 0.70912921 -6.21750854 -1.57626977 0 0 Z " fill="#FAADCF" transform="translate(143,393)"/>
<path d="M0 0 C2.63506821 3.29787678 4.60060588 6.80110704 6.625 10.5 C10.52818205 17.48396676 15.06682383 23.69498294 20 30 C21.19141066 31.58039278 22.3794585 33.16333258 23.5625 34.75 C24.366875 35.8225 25.17125 36.895 26 38 C20.72 38.99 15.44 39.98 10 41 C10.66 42.65 11.32 44.3 12 46 C18.435 45.505 18.435 45.505 25 45 C25 45.66 25 46.32 25 47 C23.390625 48.4375 23.390625 48.4375 21.25 50 C20.55390625 50.515625 19.8578125 51.03125 19.140625 51.5625 C17 53 17 53 14.8125 54.0546875 C12.47587553 55.27335802 11.95941869 56.60145327 11 59 C10.34 59 9.68 59 9 59 C9 59.66 9 60.32 9 61 C5.05803571 64.94196429 5.05803571 64.94196429 3 66 C-8.69469981 65.20219186 -21.41404164 53.36400538 -29 45 C-29 44.34 -29 43.68 -29 43 C-29.99 42.67 -30.98 42.34 -32 42 C-33.5 39.3125 -33.5 39.3125 -34 36 C-32.64208105 33.45102502 -31.1377493 32.04057888 -29 30 C-28.34 30 -27.68 30 -27 30 C-26.67 28.35 -26.34 26.7 -26 25 C-24.68 24.67 -23.36 24.34 -22 24 C-22 23.01 -22 22.02 -22 21 C-20.34151823 19.98648336 -18.67334039 18.98879205 -17 18 C-15.65263027 16.34466005 -14.31665664 14.67987227 -13 13 C-12.34 13 -11.68 13 -11 13 C-10.76539062 12.43796875 -10.53078125 11.8759375 -10.2890625 11.296875 C-8.69337 8.45364109 -6.71075457 6.51901873 -4.375 4.25 C-3.55773437 3.45078125 -2.74046875 2.6515625 -1.8984375 1.828125 C-1.27195313 1.22484375 -0.64546875 0.6215625 0 0 Z " fill="#B4F7E5" transform="translate(116,355)"/>
<path d="M0 0 C16.51866136 15.28976441 23.31774755 45.25640373 25 67 C25.10864834 70.8347293 25.09522042 74.66416017 25.0625 78.5 C25.05798828 79.51320313 25.05347656 80.52640625 25.04882812 81.5703125 C25.03714593 84.04693827 25.02076582 86.52343657 25 89 C19.375 92 19.375 92 16 92 C16 93.32 16 94.64 16 96 C11.545 96.495 11.545 96.495 7 97 C7 100.63 7 104.26 7 108 C7.66 108.33 8.32 108.66 9 109 C8.01 109 7.02 109 6 109 C5.67 109.99 5.34 110.98 5 112 C3.68 111.67 2.36 111.34 1 111 C1.99 111 2.98 111 4 111 C4 107.04 4 103.08 4 99 C0.04 100.65 -3.92 102.3 -8 104 C-7.52075372 99.15761568 -6.92736445 94.39066426 -6.0625 89.6015625 C-3.27373543 74.04572949 -2.21485861 58.79395982 -2 43 C-1.34 43 -0.68 43 0 43 C2.06134225 53.96714131 2.57834581 64.87054854 3 76 C6.85244897 55.1814042 4.96239185 29.91550185 -3.13671875 10.23828125 C-4.16192302 7.58017244 -4.09141774 6.60261153 -3 4 C-1.4375 1.75 -1.4375 1.75 0 0 Z " fill="#B0F4E1" transform="translate(439,252)"/>
<path d="M0 0 C0.66 0 1.32 0 2 0 C2.20442131 10.77754582 2.05593422 21.32210473 0.78393555 32.03320312 C0.0604412 38.14868141 -0.37603534 44.24413678 -0.65795898 50.39526367 C-0.79575296 53.22161792 -0.99107765 55.95163466 -1.50488281 58.73681641 C-2.0691024 62.45543524 -2.16198041 66.09665174 -2.16796875 69.84765625 C-2.17129715 70.58197372 -2.17462555 71.3162912 -2.17805481 72.07286072 C-2.18309183 73.61668272 -2.18546414 75.16051549 -2.18530273 76.7043457 C-2.18749668 79.05893842 -2.20570652 81.41306763 -2.22460938 83.76757812 C-2.22754255 85.27343591 -2.22952785 86.7792959 -2.23046875 88.28515625 C-2.23765427 88.98423599 -2.24483978 89.68331573 -2.25224304 90.40357971 C-2.23360698 94.40722213 -1.67006763 97.37237719 0 101 C0.046875 103.0703125 0.046875 103.0703125 -0.25 105.125 C-0.35828125 105.90359375 -0.4665625 106.6821875 -0.578125 107.484375 C-1.17525192 111.04502071 -1.8511436 114.58961586 -2.5234375 118.13671875 C-3.2884537 122.73308657 -3.65862659 127.35552493 -4 132 C-8.93036865 131.21114102 -10.75179788 129.89784254 -14 126 C-26.29703804 107.07602791 -22.00123201 81.43179651 -17.63134766 60.43994141 C-7.93976963 16.34410025 -7.93976963 16.34410025 0 0 Z " fill="#F6F6F6" transform="translate(125,118)"/>
<path d="M0 0 C0.79212891 0.00354492 1.58425781 0.00708984 2.40039062 0.01074219 C8.43903978 0.18221 13.62895523 1.14158926 18.125 5.5 C19.34375 7.671875 19.34375 7.671875 20.125 9.5 C19.465 9.83 18.805 10.16 18.125 10.5 C18.74226196 16.17355671 19.40445952 21.83861055 20.125 27.5 C21.445 27.17 22.765 26.84 24.125 26.5 C24.269375 25.736875 24.41375 24.97375 24.5625 24.1875 C25.125 21.5 25.125 21.5 26.125 18.5 C26.785 18.5 27.445 18.5 28.125 18.5 C30.18554573 22.75191977 30.39378779 26.30305214 30.375 31 C30.38273437 32.93359375 30.38273437 32.93359375 30.390625 34.90625 C30.14330367 38.2523621 29.5755069 40.50689053 28.125 43.5 C24.37166256 43.5 23.44010359 42.44157942 20.5 40.1875 C10.65667548 33.18086842 1.27912886 32.19955273 -10.6796875 33.8984375 C-17.57466724 35.55237345 -21.98023931 39.52247766 -26.875 44.5 C-29.92929961 42.11571473 -30.8099466 40.98349007 -31.3359375 37.07421875 C-31.30757812 35.79160156 -31.27921875 34.50898438 -31.25 33.1875 C-31.23710937 31.91261719 -31.22421875 30.63773437 -31.2109375 29.32421875 C-30.86607629 25.39841499 -30.08147763 22.23042882 -28.875 18.5 C-28.215 18.5 -27.555 18.5 -26.875 18.5 C-22.875 25.25 -22.875 25.25 -22.875 27.5 C-21.885 27.17 -20.895 26.84 -19.875 26.5 C-18.90147738 20.90224495 -18.26295643 15.17437001 -18.875 9.5 C-19.535 8.84 -20.195 8.18 -20.875 7.5 C-14.33037837 1.74866584 -8.50501169 -0.06818364 0 0 Z " fill="#710C3A" transform="translate(274.875,308.5)"/>
<path d="M0 0 C-4.36334342 18.05620404 -16.28184052 31.39393494 -31.88183594 41.06542969 C-48.27392723 50.82540094 -66.55493815 53.21374095 -84.9375 48.5625 C-95.65981294 46.01889528 -106.00438487 45.13247729 -117 45 C-108.50200401 38.26609693 -100.33900783 38.8882864 -90.04492188 40.04760742 C-86.85107899 40.44068157 -83.70188347 40.84863535 -80.5546875 41.52734375 C-75.84812182 42.39813037 -71.08588884 42.22672937 -66.3125 42.25 C-65.27416016 42.270625 -64.23582031 42.29125 -63.16601562 42.3125 C-57.01573398 42.34334781 -51.85903882 41.69932898 -46.04760742 39.64746094 C-44 39 -44 39 -41 39 C-41.15726562 38.4328125 -41.31453125 37.865625 -41.4765625 37.28125 C-43.68432589 27.65935582 -40.86245693 19.36398106 -35.8359375 11.08203125 C-30.58701055 4.13702247 -22.54528185 0.83330167 -14.25 -0.6875 C-9.44417621 -1.2276895 -4.77228613 -0.63565287 0 0 Z " fill="#FBAED0" transform="translate(456,386)"/>
<path d="M0 0 C9.20284858 5.93974704 15.43848033 13.61712507 19 24 C19.59153176 27.2505856 19.71591196 30.38783819 19.6875 33.6875 C19.67879883 34.99025879 19.67879883 34.99025879 19.66992188 36.31933594 C19.29025265 46.81447797 15.27770479 54.7791591 8.1875 62.5625 C-0.19744544 70.15120062 -10.62447326 73.54633932 -21.8125 73.30859375 C-33.22898806 72.20332101 -41.69779183 66.87981216 -49.3125 58.5625 C-57.44319842 48.53463862 -57.99547415 37.45341012 -57 25 C-55.21430249 16.10563407 -49.35641584 8.38623703 -42.28125 2.88671875 C-30.11779959 -5.18326277 -13.06898244 -7.85529264 0 0 Z M-42.72265625 11.88671875 C-48.68151689 19.33895479 -50.65104626 26.05710328 -50.41796875 35.61328125 C-49.42282712 43.67671854 -45.95525146 51.4417653 -40 57 C-30.27514366 63.60291209 -21.63234259 65.42936457 -10 64 C-0.79472721 61.24958222 5.46892455 55.95539591 10.30859375 47.79296875 C14.21487014 39.64250278 14.70840444 29.16451229 11.875 20.5625 C11.04968809 18.74074272 11.04968809 18.74074272 10 17 C9.60941406 16.32582031 9.21882813 15.65164062 8.81640625 14.95703125 C4.29885691 8.13591568 -2.00298978 4.57025402 -9.5 1.625 C-22.35018407 -0.66967573 -33.77545441 2.08740245 -42.72265625 11.88671875 Z " fill="#F1F1F1" transform="translate(213,225)"/>
<path d="M0 0 C9.12817096 4.97900234 16.00458724 11.3428412 20 21 C20.35320312 21.72058594 20.70640625 22.44117188 21.0703125 23.18359375 C23.87950177 31.69378476 23.49301483 42.80475794 19.84765625 50.97900391 C14.42666159 61.52725908 6.55050806 68.902837 -4.6875 72.8125 C-16.42118772 75.94388292 -26.69877598 74.00851515 -37.1875 68.25 C-45.39399269 61.68480585 -50.65017218 55.04948345 -54 45 C-54.25168473 41.94203058 -54.23128288 38.87976789 -54.25 35.8125 C-54.270625 34.98685547 -54.29125 34.16121094 -54.3125 33.31054688 C-54.37709906 23.06352112 -50.33706335 14.78181863 -43.40625 7.2734375 C-31.71027874 -3.48464928 -14.59482567 -6.68196838 0 0 Z M-44 15 C-49.56447883 23.033403 -50.10068449 31.46765693 -49 41 C-47.06144557 49.46121991 -42.45329644 55.77377286 -35.4765625 60.828125 C-27.13099011 65.72114553 -18.43375623 66.62035405 -9 65 C0.19911096 62.17265632 6.50149951 56.99444562 11.30859375 48.7578125 C15.3136741 40.30418269 15.56382033 30.42200525 12.4375 21.625 C8.11053385 12.37895654 1.06816972 6.40436913 -8.3125 2.6875 C-22.70398138 0.00434245 -34.37936653 3.77015986 -44 15 Z " fill="#F2F2F2" transform="translate(371,224)"/>
<path d="M0 0 C1.32 0 2.64 0 4 0 C4 1.65 4 3.3 4 5 C5.32 5.33 6.64 5.66 8 6 C8 6.66 8 7.32 8 8 C8.99 8.495 8.99 8.495 10 9 C9.67 9.66 9.34 10.32 9 11 C9.26103516 11.94746094 9.26103516 11.94746094 9.52734375 12.9140625 C10 15 10 15 8.5625 18.375 C6.07452885 24.32351285 6.76014201 30.67485593 7 37 C-7.48971591 43.33925071 -24.86256376 42.41327861 -40.15234375 39.51171875 C-45.06144493 38.62956202 -50.02844082 38.34039504 -55 38 C-52.44385281 34.86009601 -49.91305762 34.20964802 -46.0625 33.1875 C-28.86006332 28.06094602 -12.61881051 16.57383126 -1.8125 2.0625 C-1.214375 1.381875 -0.61625 0.70125 0 0 Z " fill="#B2F8E5" transform="translate(408,388)"/>
<path d="M0 0 C3.68443505 2.57910454 6.44102847 4.5990427 8.953125 8.3671875 C8.69314383 12.266905 6.6131866 14.64062436 3.953125 17.3671875 C-4.73081075 23.11245298 -12.40587429 25.39492444 -22.71875 24.0078125 C-30.35454112 22.41163018 -36.27445629 18.59928308 -41.046875 12.3671875 C-41.57440781 9.37935079 -41.48164866 8.03961879 -39.83203125 5.48828125 C-29.202294 -4.90041887 -13.18962834 -7.94069461 0 0 Z " fill="#D091AE" transform="translate(291.046875,346.6328125)"/>
<path d="M0 0 C0.66 0 1.32 0 2 0 C3.02649277 1.12525155 3.99587696 2.30282645 4.9375 3.5 C16.41185895 16.85155468 34.11851842 25.07927082 51 29 C52.90265625 29.53560547 52.90265625 29.53560547 54.84375 30.08203125 C59.22957413 31.1767841 63.43402451 31.30425296 67.9375 31.25 C68.72801758 31.24540771 69.51853516 31.24081543 70.33300781 31.23608398 C75.8233645 31.150545 80.69916939 30.501902 86 29 C91.35505568 27.86062645 96.55143112 27.9030887 102 28 C101.505 26.515 101.505 26.515 101 25 C101.53367187 25.18175781 102.06734375 25.36351562 102.6171875 25.55078125 C107.65404499 27.25006708 112.69888524 28.7863694 117.8359375 30.15625 C120.20480538 31.07985192 121.27816054 32.17404932 123 34 C121.77410156 34.08636719 120.54820312 34.17273438 119.28515625 34.26171875 C110.38587327 34.96475509 101.7647229 35.94568744 93.05151367 37.93139648 C82.57319264 40.31309983 72.50749406 41.52964195 61.75 41.625 C59.98462891 41.65907959 59.98462891 41.65907959 58.18359375 41.69384766 C45.73998353 41.58639292 35.16539036 36.95963817 25 30 C24.19046875 29.44957031 23.3809375 28.89914062 22.546875 28.33203125 C12.89667407 21.21576673 4.6558276 11.08530382 0 0 Z " fill="#B97F98" transform="translate(85,398)"/>
<path d="M0 0 C0.66 0 1.32 0 2 0 C8.23664085 10.85637481 10.79064807 23.61797808 13.54199219 35.73706055 C14.92689297 41.82396852 16.56125423 47.82349566 18.265625 53.828125 C19 57 19 57 19 62 C9.1 62 -0.8 62 -11 62 C-9.87522565 53.00180518 -9.87522565 53.00180518 -8.66015625 49.08984375 C-8.40169922 48.24486328 -8.14324219 47.39988281 -7.87695312 46.52929688 C-7.60818359 45.67400391 -7.33941406 44.81871094 -7.0625 43.9375 C-6.53219527 42.21755789 -6.00224074 40.49750776 -5.47265625 38.77734375 C-4.61017261 35.97633592 -3.74338795 33.176888 -2.87109375 30.37890625 C-1.05885269 23.34936134 -0.77577876 16.22031063 -0.4375 9 C-0.39431641 8.12988281 -0.35113281 7.25976562 -0.30664062 6.36328125 C-0.20175782 4.24231781 -0.10049925 2.12117567 0 0 Z " fill="#FADB1F" transform="translate(421,119)"/>
<path d="M0 0 C6.27 0 12.54 0 19 0 C18 6 18 6 17.44799805 7.94384766 C16.37148287 12.88467101 16.81412736 18.15862986 16.81469727 23.20458984 C16.8125423 25.33322116 16.79446177 27.46130624 16.77539062 29.58984375 C16.74342085 37.48465373 17.21723855 45.03622158 18.50805664 52.85058594 C19.29280325 57.87452207 19.64714927 62.93009212 20 68 C18.39431334 67.71682074 16.79047953 67.42312209 15.1875 67.125 C14.29417969 66.96257812 13.40085938 66.80015625 12.48046875 66.6328125 C10 66 10 66 7 64 C6.76909742 61.34423552 6.72440767 58.9231564 6.8125 56.2734375 C6.82385986 55.49296051 6.83521973 54.71248352 6.84692383 53.90835571 C6.89567178 50.57339062 6.97846351 47.23953625 7.06152344 43.90527344 C7.38590245 29.66105109 7.22926608 15.71353689 0 3 C0 2.01 0 1.02 0 0 Z " fill="#FADC22" transform="translate(184,306)"/>
<path d="M0 0 C1.18531416 3.55594248 0.86519006 4.09528276 -0.6875 7.375 C-4.49687859 14.64261334 -10.24174134 20.25565498 -16 26 C-16.68191406 26.69351562 -17.36382812 27.38703125 -18.06640625 28.1015625 C-26.19439606 35.79067597 -37.05643559 41.71507996 -48 44 C-48.95519531 44.20238281 -49.91039062 44.40476562 -50.89453125 44.61328125 C-61.78037269 46.66747726 -71.23245066 46.27114117 -81.9375 43.5625 C-92.65981294 41.01889528 -103.00438487 40.13247729 -114 40 C-105.50200401 33.26609693 -97.33900783 33.8882864 -87.04492188 35.04760742 C-83.84837894 35.44101387 -80.69523575 35.8519834 -77.54370117 36.52294922 C-63.65482377 39.12769693 -48.79441149 37.86587637 -36 32 C-34.98703857 31.54995605 -34.98703857 31.54995605 -33.95361328 31.09082031 C-17.82318551 23.86032013 -9.78147092 14.54724269 0 0 Z " fill="#80B2A5" transform="translate(453,391)"/>
<path d="M0 0 C0.66 0.99 1.32 1.98 2 3 C0.989375 3.78375 -0.02125 4.5675 -1.0625 5.375 C-5.58646057 9.23421534 -8.97949981 13.89544649 -12 19 C-12 19.66 -12 20.32 -12 21 C-11.34 21 -10.68 21 -10 21 C-8.66216607 21.31478446 -7.32796291 21.64587656 -6 22 C-5.1875 24.6875 -5.1875 24.6875 -5 28 C-7.375 30.6875 -7.375 30.6875 -10 33 C-10.33 33.99 -10.66 34.98 -11 36 C-11.99 36.495 -11.99 36.495 -13 37 C-13 37.66 -13 38.32 -13 39 C-13.66 39 -14.32 39 -15 39 C-15.33 40.65 -15.66 42.3 -16 44 C-17.485 43.505 -17.485 43.505 -19 43 C-18.505 43.763125 -18.01 44.52625 -17.5 45.3125 C-16 48 -16 48 -16 51 C-21.97912053 51.71749446 -21.97912053 51.71749446 -24.80078125 49.734375 C-26.34446483 48.21648088 -27.74949891 46.76810776 -29 45 C-29 44.34 -29 43.68 -29 43 C-29.99 42.67 -30.98 42.34 -32 42 C-33.5 39.3125 -33.5 39.3125 -34 36 C-32.64208105 33.45102502 -31.1377493 32.04057888 -29 30 C-28.34 30 -27.68 30 -27 30 C-26.67 28.35 -26.34 26.7 -26 25 C-24.68 24.67 -23.36 24.34 -22 24 C-22 23.01 -22 22.02 -22 21 C-20.34151823 19.98648336 -18.67334039 18.98879205 -17 18 C-15.65263027 16.34466005 -14.31665664 14.67987227 -13 13 C-12.34 13 -11.68 13 -11 13 C-10.76539062 12.43796875 -10.53078125 11.8759375 -10.2890625 11.296875 C-8.69337 8.45364109 -6.71075457 6.51901873 -4.375 4.25 C-3.55773437 3.45078125 -2.74046875 2.6515625 -1.8984375 1.828125 C-1.27195313 1.22484375 -0.64546875 0.6215625 0 0 Z " fill="#BEF0E5" transform="translate(116,355)"/>
<path d="M0 0 C3.43761572 2.12108204 5.77560839 4.1042085 7 8 C7.48365156 13.22343681 6.92346277 16.61480585 4 21 C0.27431216 24.29246833 -2.90237962 25.78229031 -7.97265625 25.51953125 C-12.75765179 24.29331852 -15.94118159 20.67646248 -18.5 16.625 C-19.21188925 12.88758143 -19.22087367 9.59245586 -18 6 C-13.13341403 -0.76076614 -7.90150266 -1.80526423 0 0 Z " fill="#050505" transform="translate(357,246)"/>
<path d="M0 0 C8.97422899 5.79219028 15.8740858 13.63418108 19 24 C19.28575104 26.76994152 19.20315331 29.20664198 19 32 C16.34697146 29.34697146 14.99847122 26.20773563 13.375 22.875 C12.88773438 21.88693359 12.88773438 21.88693359 12.390625 20.87890625 C11.59013423 19.25438086 10.79458899 17.62742022 10 16 C9.34 16 8.68 16 8 16 C4 11.52941176 4 11.52941176 4 9 C1.03814367 7.46753141 -1.96317139 6.1669471 -5.0625 4.9375 C-5.91972656 4.59589844 -6.77695313 4.25429687 -7.66015625 3.90234375 C-16.34583043 0.55277658 -24.44940502 1.61718886 -33 5 C-40.13759129 8.37438654 -45.08555028 12.56054795 -49.1875 19.3125 C-49.86167969 20.40175781 -50.53585938 21.49101562 -51.23046875 22.61328125 C-53.90199912 27.72634269 -55.1543947 32.71180217 -55.625 38.4375 C-55.69976562 39.30246094 -55.77453125 40.16742188 -55.8515625 41.05859375 C-55.90054688 41.69925781 -55.94953125 42.33992188 -56 43 C-56.33 43 -56.66 43 -57 43 C-57.56240781 28.65860077 -56.96830166 18.73425196 -47.34375 7.33203125 C-35.36864126 -4.58320195 -15.01877982 -9.02724532 0 0 Z " fill="#B1B1B1" transform="translate(213,225)"/>
<path d="M0 0 C2.76398195 2.26620321 3.90388773 4.08742086 4.625 7.609375 C4.86406091 12.22702523 4.7470939 15.84919007 1.7734375 19.5390625 C-2.1097321 23.06100702 -4.44630169 24.49717809 -9.78125 24.359375 C-13.59036172 23.67568828 -16.21392489 21.66924117 -18.9140625 18.9765625 C-21.44875487 15.17452394 -21.07905515 11.50313905 -20.453125 7.12890625 C-19.41963789 3.00244686 -17.24545945 0.81344058 -13.7265625 -1.3984375 C-8.91287437 -2.46814597 -4.41967651 -2.36317397 0 0 Z " fill="#050505" transform="translate(203.9140625,247.0234375)"/>
<path d="M0 0 C0.66 0 1.32 0 2 0 C2.350625 1.093125 2.70125 2.18625 3.0625 3.3125 C10.27526637 22.22523763 27.35116004 37.07389016 45 46 C48.63665985 47.50161716 52.25832266 48.76918508 56 50 C56 53.63 56 57.26 56 61 C43.48323882 57.30553662 29.48194941 50.11728671 21 40 C21 39.34 21 38.68 21 38 C20.34 38 19.68 38 19 38 C17.29822634 35.90967978 15.73067237 33.82852367 14.1875 31.625 C13.73681152 30.98522217 13.28612305 30.34544434 12.82177734 29.6862793 C7.11787626 21.45040765 0 10.29273646 0 0 Z " fill="#B9B9B8" transform="translate(135,309)"/>
<path d="M0 0 C4.246051 3.13333989 6.67437945 5.52704459 8.3671875 10.60546875 C3.15848375 15.47812709 -2.91981009 17.70101346 -10.0078125 17.98046875 C-15.8558646 17.77418825 -23.3919989 16.84628235 -27.6328125 12.60546875 C-27.55825853 8.57955425 -27.3294676 6.36545613 -24.5703125 3.35546875 C-17.1710234 -1.05261838 -8.18526935 -4.33552101 0 0 Z " fill="#F7AACC" transform="translate(285.6328125,353.39453125)"/>
<path d="M0 0 C9.17600006 5.00509094 15.92125736 11.34629255 20 21 C20.4125 21.845625 20.825 22.69125 21.25 23.5625 C22.23444949 26.76196085 22.13039717 29.67487224 22 33 C19.27419693 29.85484261 17.13648253 26.59061575 15.0625 23 C12.73580709 19.07769475 10.49232231 15.99341912 7 13 C6.43796875 12.50886719 5.8759375 12.01773438 5.296875 11.51171875 C-2.14157973 5.41883815 -10.56905272 2.19349591 -20.23828125 2.62109375 C-28.35402706 3.73456948 -34.43734675 6.66804494 -40.24609375 12.4140625 C-42 14 -42 14 -44.05859375 14.99609375 C-46.33184024 16.17159546 -47.21551039 17.32326558 -48.625 19.4375 C-49.23214844 20.33275391 -49.23214844 20.33275391 -49.8515625 21.24609375 C-50.23054688 21.82488281 -50.60953125 22.40367187 -51 23 C-51.66 23.99 -52.32 24.98 -53 26 C-52.83012279 18.18564812 -48.51893345 12.7908885 -43.33203125 7.203125 C-31.68293552 -3.53285872 -14.5233932 -6.64926436 0 0 Z " fill="#B7B7B7" transform="translate(371,224)"/>
<path d="M0 0 C0.99 0.33 1.98 0.66 3 1 C3.92188461 3.76565382 4.11785222 5.38283702 4.09765625 8.23046875 C4.09443359 9.03291016 4.09121094 9.83535156 4.08789062 10.66210938 C4.07532227 11.91217773 4.07532227 11.91217773 4.0625 13.1875 C4.05798828 14.03248047 4.05347656 14.87746094 4.04882812 15.74804688 C4.03705403 17.83206155 4.0191189 19.91603977 4 22 C4.99 22 5.98 22 7 22 C7.66 23.65 8.32 25.3 9 27 C12.93075644 26.42547254 12.93075644 26.42547254 16 24 C16.18971701 20.20565984 16.14978108 16.86124124 15.5 13.125 C14.79935242 8.7459526 14.92129547 4.42494368 15 0 C15.99 0 16.98 0 18 0 C21.82494014 6.69364525 21.49386847 13.44001339 21 21 C20.67 21.99 20.34 22.98 20 24 C19.77674186 26.05893621 19.59294241 28.12233653 19.4375 30.1875 C19.35371094 31.27417969 19.26992188 32.36085937 19.18359375 33.48046875 C19.09271484 34.72763672 19.09271484 34.72763672 19 36 C16.91673869 36.02709444 14.83337559 36.04643873 12.75 36.0625 C11.00976562 36.07990234 11.00976562 36.07990234 9.234375 36.09765625 C6.59022872 36.01782092 4.50173909 35.78643778 2 35 C1.95101563 34.29875 1.90203125 33.5975 1.8515625 32.875 C1.50712434 28.50419852 1.13653853 24.48190069 -0.0625 20.25 C-1.78255623 14.12711327 -1.34142454 7.29650376 -1 1 C-0.67 0.67 -0.34 0.34 0 0 Z " fill="#F8F8FA" transform="translate(350,176)"/>
<path d="M0 0 C0 0.66 0 1.32 0 2 C-1.609375 3.4375 -1.609375 3.4375 -3.75 5 C-4.44609375 5.515625 -5.1421875 6.03125 -5.859375 6.5625 C-8 8 -8 8 -10.1875 9.0546875 C-12.52412447 10.27335802 -13.04058131 11.60145327 -14 14 C-14.66 14 -15.32 14 -16 14 C-16 14.66 -16 15.32 -16 16 C-19.94196429 19.94196429 -19.94196429 19.94196429 -22 21 C-26.40067715 20.74725841 -29.59913107 18.68184386 -33.3125 16.4375 C-34.38113281 15.79683594 -35.44976562 15.15617187 -36.55078125 14.49609375 C-37.35902344 14.00238281 -38.16726562 13.50867188 -39 13 C-38.25 8.25 -38.25 8.25 -36 6 C-34.7315625 6.0309375 -34.7315625 6.0309375 -33.4375 6.0625 C-30.36333073 6.00660601 -28.90084267 5.71716248 -26.125 4.6875 C-21.73050266 3.11268013 -17.32663755 2.17081426 -12.75 1.3125 C-12.06437988 1.18125732 -11.37875977 1.05001465 -10.67236328 0.91479492 C-7.07267786 0.25978748 -3.65893983 -0.14891034 0 0 Z " fill="#B3F9E6" transform="translate(141,400)"/>
<path d="M0 0 C0.33 0 0.66 0 1 0 C1.46769339 12.99148314 0.43220555 22.03693728 -6.98828125 32.96875 C-9.45535735 35.4597783 -11.64340225 36.12889424 -15 37 C-15.33682062 34.7505194 -15.66933001 32.50039296 -16 30.25 C-16.185625 28.99703125 -16.37125 27.7440625 -16.5625 26.453125 C-17 23 -17 23 -17 19 C-15.2984375 18.319375 -15.2984375 18.319375 -13.5625 17.625 C-9.95278308 16.42904194 -9.95278308 16.42904194 -9 14 C-8.34 14 -7.68 14 -7 14 C-6.58621094 13.17242187 -6.58621094 13.17242187 -6.1640625 12.328125 C-4.109375 8.21875 -2.0546875 4.109375 0 0 Z " fill="#B6B6B6" transform="translate(443,213)"/>
<path d="M0 0 C2.390625 0.2734375 2.390625 0.2734375 5 1 C6.109375 2.6015625 6.109375 2.6015625 6.75 4.625 C6.97171875 5.27726563 7.1934375 5.92953125 7.421875 6.6015625 C9.21684011 14.04824209 9.11887377 21.30969557 9.0625 28.9375 C9.05798828 30.09830078 9.05347656 31.25910156 9.04882812 32.45507812 C9.03710647 35.30343934 9.0206976 38.15169222 9 41 C2.125 37.375 2.125 37.375 1 34 C0.93339159 31.77694428 1.00138999 29.57443902 1.0625 27.3515625 C1.07087365 24.98442686 1.07087365 24.98442686 0.50219727 22.65698242 C0.01366316 20.07228787 -0.11459384 17.76204562 -0.09765625 15.13671875 C-0.09443359 14.25048828 -0.09121094 13.36425781 -0.08789062 12.45117188 C-0.07951172 11.53916016 -0.07113281 10.62714844 -0.0625 9.6875 C-0.05798828 8.75615234 -0.05347656 7.82480469 -0.04882812 6.86523438 C-0.03709234 4.57675627 -0.02067363 2.28841192 0 0 Z " fill="#F5FCFB" transform="translate(379,183)"/>
<path d="M0 0 C0.33 0 0.66 0 1 0 C0.99097656 1.20914063 0.98195313 2.41828125 0.97265625 3.6640625 C1.11003794 15.85356499 2.92079405 24.84753884 10.3515625 34.8125 C12.48858335 36.53690367 12.48858335 36.53690367 18 37 C17.67 41.95 17.34 46.9 17 52 C11.4270019 50.88540038 10.51855947 50.22227136 7 46 C2.18841518 38.59542854 -0.27199185 31.68705022 -0.1953125 22.75390625 C-0.1924826 22.09792953 -0.18965271 21.44195282 -0.18673706 20.76609802 C-0.17565984 18.69803591 -0.15058063 16.63042827 -0.125 14.5625 C-0.11495402 13.14909485 -0.10583102 11.73568283 -0.09765625 10.32226562 C-0.07576184 6.88136606 -0.04132051 3.44072748 0 0 Z " fill="#B3B3B3" transform="translate(104,198)"/>
<path d="M0 0 C-0.33 0.66 -0.66 1.32 -1 2 C-1.99 2 -2.98 2 -4 2 C-3.93039062 3.03640625 -3.86078125 4.0728125 -3.7890625 5.140625 C-3.73277236 6.51035174 -3.67817352 7.88014873 -3.625 9.25 C-3.57472656 9.93191406 -3.52445312 10.61382812 -3.47265625 11.31640625 C-3.4140625 13.328125 -3.4140625 13.328125 -4 17 C-6.84765625 19.3125 -6.84765625 19.3125 -10 21 C-11.68528688 22.64783606 -13.35697047 24.31002677 -15 26 C-15.33 26 -15.66 26 -16 26 C-16.02505615 25.39003174 -16.0501123 24.78006348 -16.07592773 24.15161133 C-16.1924058 21.37172102 -16.31489632 18.5921266 -16.4375 15.8125 C-16.47681641 14.85279297 -16.51613281 13.89308594 -16.55664062 12.90429688 C-16.59853516 11.97294922 -16.64042969 11.04160156 -16.68359375 10.08203125 C-16.73858032 8.80162964 -16.73858032 8.80162964 -16.79467773 7.49536133 C-17.00531094 4.93545406 -17.44841536 2.50666757 -18 0 C-15.75067773 -0.1954625 -13.50049858 -0.38108226 -11.25 -0.5625 C-9.99703125 -0.66691406 -8.7440625 -0.77132813 -7.453125 -0.87890625 C-4.60547636 -0.97876723 -2.65713933 -0.90584295 0 0 Z " fill="#B5F6E4" transform="translate(367,307)"/>
<path d="M0 0 C0.66 0 1.32 0 2 0 C3.65 2.97 5.3 5.94 7 9 C8.98 8.67 10.96 8.34 13 8 C12.67 9.32 12.34 10.64 12 12 C12.66 12 13.32 12 14 12 C13.68160666 15.18942289 13.34780832 16.65427021 11.0390625 18.94921875 C10.24242187 19.52285156 9.44578125 20.09648437 8.625 20.6875 C7.43777344 21.55955078 7.43777344 21.55955078 6.2265625 22.44921875 C4.49824562 23.65297629 2.75247085 24.8316861 1 26 C-2.43339124 22.42166349 -2.37573268 19.52723231 -2.3125 14.6875 C-2.30863281 13.41261719 -2.30476562 12.13773437 -2.30078125 10.82421875 C-1.99034634 6.87726062 -1.21594084 3.74471023 0 0 Z " fill="#710C3A" transform="translate(246,327)"/>
<path d="M0 0 C0.94617188 0.09216797 1.89234375 0.18433594 2.8671875 0.27929688 C8.40590792 0.8584844 13.63432865 1.82555098 19 3.3125 C19.495 6.7775 19.495 6.7775 20 10.3125 C17.85353874 10.02549096 15.7078599 9.73262887 13.5625 9.4375 C12.36753906 9.27507812 11.17257812 9.11265625 9.94140625 8.9453125 C7.11561241 8.49161716 4.45562555 7.95556453 1.6875 7.28125 C-3.37990975 6.12146886 -8.38016383 5.8700034 -13.5625 5.6875 C-14.47580078 5.64882813 -15.38910156 5.61015625 -16.33007812 5.5703125 C-18.55319924 5.47719748 -20.77633613 5.39137834 -23 5.3125 C-15.85554731 -0.9388961 -8.92127233 -1.05134885 0 0 Z " fill="#A8758C" transform="translate(362,425.6875)"/>
<path d="M0 0 C0.66 0 1.32 0 2 0 C5.08547352 5.37100946 7.03219161 10.84423552 8.8125 16.75 C9.04348389 17.49499756 9.27446777 18.23999512 9.51245117 19.00756836 C10.60756813 22.7573605 11.17156315 25.27290982 10 29 C9.67 28.34 9.34 27.68 9 27 C5.9890638 29.0072908 5.36983503 29.83884224 4 33 C3.505 31.515 3.505 31.515 3 30 C0.98491642 29.26676204 0.98491642 29.26676204 -1 29 C-1.33 29.66 -1.66 30.32 -2 31 C-1.34 20.77 -0.68 10.54 0 0 Z " fill="#EAD029" transform="translate(421,119)"/>
<path d="M0 0 C3.31809205 2.16336819 4.63533817 3.70860534 6.23828125 7.40234375 C6.42390625 8.28921875 6.60953125 9.17609375 6.80078125 10.08984375 C5.76953125 9.92484375 4.73828125 9.75984375 3.67578125 9.58984375 C-5.37837317 8.47821269 -14.46293498 8.29423294 -23.19921875 11.08984375 C-22.65198192 7.7152166 -22.14431875 6.00749375 -20.19921875 3.08984375 C-19.53921875 3.08984375 -18.87921875 3.08984375 -18.19921875 3.08984375 C-18.19921875 2.42984375 -18.19921875 1.76984375 -18.19921875 1.08984375 C-12.43063318 -1.50289597 -6.00392172 -2.48474913 0 0 Z " fill="#AA3C6D" transform="translate(282.19921875,332.91015625)"/>
<path d="M0 0 C0.66 0 1.32 0 2 0 C3.02649277 1.12525155 3.99587696 2.30282645 4.9375 3.5 C12.54868428 12.39802369 22.71423187 17.76717679 33 23 C31.45367287 26.28339065 30.3166466 28.29429604 27 30 C16.00423143 26.6361629 8.78586638 15.33887728 3 6 C1.96582531 4.0174555 0.95299932 2.02281791 0 0 Z " fill="#84B7AA" transform="translate(85,398)"/>
<path d="M0 0 C3.43761572 2.12108204 5.77560839 4.1042085 7 8 C7.48365156 13.22343681 6.92346277 16.61480585 4 21 C0.27431216 24.29246833 -2.90237962 25.78229031 -7.97265625 25.51953125 C-12.75765179 24.29331852 -15.94118159 20.67646248 -18.5 16.625 C-19.21188925 12.88758143 -19.22087367 9.59245586 -18 6 C-13.13341403 -0.76076614 -7.90150266 -1.80526423 0 0 Z M-13 5 C-15.46057182 7.46057182 -15.37747115 8.40721905 -15.5 11.8125 C-15.4432038 14.61579808 -15.38772785 16.39434236 -13.8671875 18.76953125 C-11.38532094 21.02400166 -9.21942305 21.96417583 -5.9375 22.5 C-1.89215133 21.81143001 0.81868438 20.5750875 3.3125 17.25 C4.32453615 13.93788168 4.42314481 11.44560774 4 8 C1.42950213 4.41688176 -0.25458985 3.21297433 -4.5 2 C-8.41354478 2 -9.94115656 2.64032077 -13 5 Z " fill="#E4E4E4" transform="translate(357,246)"/>
<path d="M0 0 C2.76398195 2.26620321 3.90388773 4.08742086 4.625 7.609375 C4.86406091 12.22702523 4.7470939 15.84919007 1.7734375 19.5390625 C-2.1097321 23.06100702 -4.44630169 24.49717809 -9.78125 24.359375 C-13.59036172 23.67568828 -16.21392489 21.66924117 -18.9140625 18.9765625 C-21.44875487 15.17452394 -21.07905515 11.50313905 -20.453125 7.12890625 C-19.41963789 3.00244686 -17.24545945 0.81344058 -13.7265625 -1.3984375 C-8.91287437 -2.46814597 -4.41967651 -2.36317397 0 0 Z M-15.9140625 3.9765625 C-18.39792309 7.70235339 -18.2944837 9.56367652 -17.9140625 13.9765625 C-16.64407931 16.83402467 -15.6302622 18.45793513 -13.1015625 20.2890625 C-10.09166258 21.23503105 -8.06208214 21.41728525 -4.9140625 20.9765625 C-1.31386593 19.01093859 -1.31386593 19.01093859 1.0859375 15.9765625 C2.06678679 11.37697378 1.99330776 7.46464973 -0.4765625 3.4140625 C-6.11848221 0.08677652 -10.51048611 0.45795462 -15.9140625 3.9765625 Z " fill="#E4E4E4" transform="translate(203.9140625,247.0234375)"/>
<path d="M0 0 C1.41514574 2.83029148 1.20780992 5.28379133 1.25 8.4375 C1.27578125 9.59121094 1.3015625 10.74492187 1.328125 11.93359375 C1 15 1 15 -0.3671875 16.83203125 C-3.40388724 19.00421599 -5.8618657 20.05419687 -9.625 19.875 C-12.57785376 18.78710651 -13.56634659 17.78765941 -15 15 C-14.90756634 12.04212277 -14.00566784 11.00658201 -12.0625 8.75 C-10 7 -10 7 -8 7 C-8 6.34 -8 5.68 -8 5 C-2.52380952 0 -2.52380952 0 0 0 Z " fill="#F9B0D0" transform="translate(365,334)"/>
<path d="M0 0 C1.18531416 3.55594248 0.86519006 4.09528276 -0.6875 7.375 C-7.75868756 20.86556175 -20.94965867 31.69929675 -34 39 C-35.5625 37.75 -35.5625 37.75 -37 36 C-36.79711914 34.0090332 -36.79711914 34.0090332 -36 32 C-33.48245531 30.56182665 -31.07349231 29.3596066 -28.4375 28.1875 C-14.83751249 21.67518682 -8.29303952 12.33361114 0 0 Z " fill="#B77E97" transform="translate(453,391)"/>
<path d="M0 0 C0 3.96 0 7.92 0 12 C-0.99 12 -1.98 12 -3 12 C-3 12.66 -3 13.32 -3 14 C-4.12148438 14.39832031 -4.12148438 14.39832031 -5.265625 14.8046875 C-6.25046875 15.15789062 -7.2353125 15.51109375 -8.25 15.875 C-9.22453125 16.22304688 -10.1990625 16.57109375 -11.203125 16.9296875 C-13.56294327 17.83274645 -15.76905116 18.82078418 -18 20 C-14.92482916 8.47835991 -14.92482916 8.47835991 -13 3 C-12.34 3.33 -11.68 3.66 -11 4 C-9.08343976 3.22827763 -9.08343976 3.22827763 -7.0625 2.0625 C-4.31063302 0.5451154 -3.22211537 0 0 0 Z " fill="#F4AFCD" transform="translate(443,351)"/>
<path d="M0 0 C0.70189453 0.00451172 1.40378906 0.00902344 2.12695312 0.01367188 C3.85550538 0.02543073 5.58401365 0.04336546 7.3125 0.0625 C7.3125 0.3925 7.3125 0.7225 7.3125 1.0625 C-1.1025 1.5575 -1.1025 1.5575 -9.6875 2.0625 C-10.0175 3.3825 -10.3475 4.7025 -10.6875 6.0625 C-10.0275 6.3925 -9.3675 6.7225 -8.6875 7.0625 C-9.8425 7.413125 -10.9975 7.76375 -12.1875 8.125 C-16.57260689 9.74220254 -19.48597605 12.23045736 -22.828125 15.44140625 C-24.6875 17.0625 -24.6875 17.0625 -26.7578125 18.0625 C-29.02251404 19.23611051 -29.90745854 20.39243781 -31.3125 22.5 C-31.91964844 23.39525391 -31.91964844 23.39525391 -32.5390625 24.30859375 C-32.91804688 24.88738281 -33.29703125 25.46617187 -33.6875 26.0625 C-34.3475 27.0525 -35.0075 28.0425 -35.6875 29.0625 C-35.51762279 21.24814812 -31.20643345 15.8533885 -26.01953125 10.265625 C-18.64650894 3.47053556 -9.92712702 -0.12049734 0 0 Z " fill="#A8A8A8" transform="translate(353.6875,220.9375)"/>
<path d="M0 0 C0 0.99 0 1.98 0 3 C0.66 3 1.32 3 2 3 C3.49821059 6.37097383 4 8.20442119 4 12 C-9.365 10.515 -9.365 10.515 -23 9 C-19.72133589 5.72133589 -17.99550475 5.17264265 -13.625 3.9375 C-10.42065886 3.02039547 -7.30411735 2.12224325 -4.2109375 0.87890625 C-2 0 -2 0 0 0 Z " fill="#F0AAC9" transform="translate(376,417)"/>
<path d="M0 0 C2.5390625 1.41015625 2.5390625 1.41015625 5 4 C5.39451521 7.20643437 4.85359178 10.25836582 4.375 13.4375 C4.14109622 15.31451992 3.9120781 17.19215398 3.6875 19.0703125 C3.56761719 20.04000977 3.44773437 21.00970703 3.32421875 22.00878906 C2.79047797 26.93303006 2.57703406 31.86522284 2.375 36.8125 C2.31578369 38.19103149 2.31578369 38.19103149 2.25537109 39.59741211 C2.16578059 41.73142523 2.08217208 43.86568835 2 46 C1.67 46 1.34 46 1 46 C0.80744421 42.06782815 0.62877099 38.13529426 0.46289062 34.2019043 C0.3758305 32.20653467 0.27781127 30.21165305 0.1796875 28.21679688 C0.128125 26.96318359 0.0765625 25.70957031 0.0234375 24.41796875 C-0.02893066 23.26063232 -0.08129883 22.1032959 -0.13525391 20.91088867 C0 18 0 18 2 15 C1.34 15 0.68 15 0 15 C-0.33 22.92 -0.66 30.84 -1 39 C-1.33 39 -1.66 39 -2 39 C-2.05895136 34.75006008 -2.0939116 30.50022784 -2.125 26.25 C-2.14175781 25.06277344 -2.15851563 23.87554687 -2.17578125 22.65234375 C-2.21818871 14.89177827 -1.55083348 7.60555314 0 0 Z " fill="#9BCFC1" transform="translate(112,258)"/>
<path d="M0 0 C3.09350657 2.53105083 4.20571155 5.10798661 5 9 C3.75 11.375 3.75 11.375 2 13 C1.34 13 0.68 13 0 13 C0 13.66 0 14.32 0 15 C-2 16.625 -2 16.625 -4 18 C-5.9375 17.375 -5.9375 17.375 -8 16 C-9.1875 13.3125 -9.1875 13.3125 -9 10 C-7.41320838 7.96476728 -5.69557564 6.31962556 -3.76171875 4.61328125 C-1.77766554 2.92542848 -1.77766554 2.92542848 0 0 Z " fill="#F3AFCD" transform="translate(119,361)"/>
<path d="M0 0 C-0.53354785 4.02266997 -1.61368193 6.13280972 -4.25 9.1875 C-11.52548754 18.27065487 -13.8839969 26.44020666 -15 38 C-15.33 38 -15.66 38 -16 38 C-16.56093085 23.69626329 -15.82010009 14.29317806 -6.68359375 2.71484375 C-4.60958321 0.60233649 -2.96194724 0 0 0 Z " fill="#B6B6B6" transform="translate(172,230)"/>
<path d="M0 0 C2 2 2 2 2 5 C-0.52019972 5.33885038 -3.04098516 5.67120335 -5.5625 6 C-6.26697266 6.09539062 -6.97144531 6.19078125 -7.69726562 6.2890625 C-12.17367855 6.86666417 -16.48661238 7.09489383 -21 7 C-21.33 5.68 -21.66 4.36 -22 3 C-15.19950428 0.42683946 -7.17429842 -2.12163013 0 0 Z " fill="#F5B2D0" transform="translate(123,398)"/>
<path d="M0 0 C4.72221125 0.02098761 8.82657446 0.25724919 12.5625 3.375 C15.70700027 7.01137741 15.78479338 10.71223423 15.53125 15.37109375 C14.46898871 20.62772499 11.38852689 23.07431541 7 26 C4.95703125 26.1953125 4.95703125 26.1953125 2.8125 26.125 C1.554375 26.08375 0.29625 26.0425 -1 26 C-1 25.67 -1 25.34 -1 25 C1.31 25 3.62 25 6 25 C6 24.01 6 23.02 6 22 C7.2375 21.2265625 7.2375 21.2265625 8.5 20.4375 C11.4191376 17.59134084 11.40871727 16.86265738 11.5 12.9375 C11.46529136 10.05234442 11.42863218 8.55697263 9.65625 6.25390625 C7.90825462 4.79135938 7.90825462 4.79135938 5 4 C5 3.01 5 2.02 5 1 C3.35 1 1.7 1 0 1 C0 0.67 0 0.34 0 0 Z " fill="#CECECE" transform="translate(193,245)"/>
<path d="M0 0 C0.66 0 1.32 0 2 0 C4.67614754 12.83511537 4.64033819 25.94252182 5 39 C4.34 38.67 3.68 38.34 3 38 C2.60299444 34.89613835 2.49115468 31.81247932 2.34375 28.6875 C2.17359375 27.3571875 2.17359375 27.3571875 2 26 C1.34 25.67 0.68 25.34 0 25 C0 16.75 0 8.5 0 0 Z " fill="#95C4B8" transform="translate(437,295)"/>
<path d="M0 0 C1.9375 0.6875 1.9375 0.6875 4 2 C4.34153937 3.66500443 4.67449498 5.33178677 5 7 C6.30915279 8.03145371 7.64082143 9.03542166 9 10 C9 10.99 9 11.98 9 13 C5.6568939 13.40117273 3.07185087 13.69784334 0.1640625 11.8046875 C-2.89010939 8.95125931 -2.89010939 8.95125931 -4 7 C-3.61073574 3.68816436 -2.49390345 2.16861169 0 0 Z " fill="#F6B0D0" transform="translate(91,393)"/>
<path d="M0 0 C0.375 2.1875 0.375 2.1875 0 5 C-1.82869674 7.08832653 -3.69052559 8.38336791 -6 10 C-6.66 10 -7.32 10 -8 10 C-8 10.66 -8 11.32 -8 12 C-9.75 13.5078125 -9.75 13.5078125 -12 15.125 C-12.7425 15.66382813 -13.485 16.20265625 -14.25 16.7578125 C-14.8275 17.16773438 -15.405 17.57765625 -16 18 C-16.60740994 15.08443227 -16.87410476 13.78457324 -16 11 C-13.65754867 8.63597914 -11.17757432 6.74283862 -8.48046875 4.796875 C-6.02849181 3.13810183 -6.02849181 3.13810183 -4.36328125 1.265625 C-3 0 -3 0 0 0 Z " fill="#B7F6E6" transform="translate(365,329)"/>
<path d="M0 0 C0.598125 0.226875 1.19625 0.45375 1.8125 0.6875 C2.6875 3.25 2.6875 3.25 2.8125 6.6875 C1.10525002 9.3192915 -0.95128008 11.49665266 -3.1875 13.6875 C-6.1875 12.6875 -6.1875 12.6875 -7.5625 10.4375 C-8.1875 7.6875 -8.1875 7.6875 -7 5.0625 C-2.82817797 -0.40402542 -2.82817797 -0.40402542 0 0 Z " fill="#F6B1D0" transform="translate(108.1875,376.3125)"/>
<path d="M0 0 C0 3.63 0 7.26 0 11 C-2.31 12.32 -4.62 13.64 -7 15 C-8.26237731 12.47524538 -8.09856404 10.68799534 -8.0625 7.875 C-8.05347656 6.96492188 -8.04445313 6.05484375 -8.03515625 5.1171875 C-8.02355469 4.41851562 -8.01195312 3.71984375 -8 3 C-1.125 0 -1.125 0 0 0 Z " fill="#F0ACCB" transform="translate(464,341)"/>
<path d="M0 0 C1.6045556 0.14148989 3.20863767 0.28835686 4.8125 0.4375 C5.70582031 0.51871094 6.59914063 0.59992188 7.51953125 0.68359375 C10 1 10 1 13 2 C13.33 4.31 13.66 6.62 14 9 C8.19834261 8.02541328 3.16017278 6.98746845 -2 4 C-1.34 2.68 -0.68 1.36 0 0 Z " fill="#B68198" transform="translate(368,427)"/>
<path d="M0 0 C0.66 0 1.32 0 2 0 C3.04755745 1.14576596 4.03809717 2.3439356 5 3.5625 C9.03587722 8.3492381 13.76475785 11.62922035 19 15 C18.67 15.66 18.34 16.32 18 17 C17.34 16.67 16.68 16.34 16 16 C16 17.98 16 19.96 16 22 C9.22468931 15.85987469 3.90627532 8.23714577 0 0 Z " fill="#81B0A4" transform="translate(85,398)"/>
<path d="M0 0 C0.328125 2.703125 0.328125 2.703125 0 6 C-2.265625 8.484375 -2.265625 8.484375 -5.25 10.75 C-6.22453125 11.50796875 -7.1990625 12.2659375 -8.203125 13.046875 C-10.43914122 14.60833884 -12.52060345 15.89017488 -15 17 C-14.51020408 10.51020408 -14.51020408 10.51020408 -12.0625 8.0625 C-10 7 -10 7 -8 7 C-7.67 6.01 -7.34 5.02 -7 4 C-1.51428571 0 -1.51428571 0 0 0 Z " fill="#F2B6D1" transform="translate(364,323)"/>
<path d="M0 0 C0.33 3.96 0.66 7.92 1 12 C-1.31 12.33 -3.62 12.66 -6 13 C-7.17571451 9.32589215 -7.07366746 5.83070817 -7 2 C-4.35261084 0.5393715 -3.10551666 0 0 0 Z " fill="#F4B3D0" transform="translate(452,347)"/>
<path d="M0 0 C1.29149039 3.87447116 0.27177796 6.53039147 -0.8125 10.3125 C-0.99103516 10.96412109 -1.16957031 11.61574219 -1.35351562 12.28710938 C-2.44811446 16.23477811 -3.67230655 20.12505757 -5 24 C-4.34 23.67 -3.68 23.34 -3 23 C-3.33 24.32 -3.66 25.64 -4 27 C-4.99 27 -5.98 27 -7 27 C-7 25.35 -7 23.7 -7 22 C-8.32 21.67 -9.64 21.34 -11 21 C-10.45730469 20.07058594 -9.91460937 19.14117187 -9.35546875 18.18359375 C-8.63260718 16.93501468 -7.90996253 15.68631001 -7.1875 14.4375 C-6.83107422 13.82841797 -6.47464844 13.21933594 -6.10742188 12.59179688 C-3.74518233 8.49580354 -1.78642845 4.37872209 0 0 Z " fill="#AAE5D4" transform="translate(419,366)"/>
<path d="M0 0 C2.10754422 0.59227705 4.21095876 1.19926338 6.3125 1.8125 C8.07013672 2.31716797 8.07013672 2.31716797 9.86328125 2.83203125 C13 4 13 4 16 7 C4.12 7.99 4.12 7.99 -8 9 C-7.67 8.34 -7.34 7.68 -7 7 C-3.9375 6.375 -3.9375 6.375 -1 6 C-1.66 4.68 -2.32 3.36 -3 2 C-2.01 2 -1.02 2 0 2 C0 1.34 0 0.68 0 0 Z " fill="#956B7D" transform="translate(192,425)"/>
<path d="M0 0 C0.33 0 0.66 0 1 0 C1.33695862 2.72876308 1.66968429 5.45793163 2 8.1875 C2.09539062 8.95642578 2.19078125 9.72535156 2.2890625 10.51757812 C2.75192894 14.36928811 3.12467468 18.11170851 3 22 C0.00641141 19.41994017 -1.45566888 16.45675187 -3.1875 12.9375 C-3.71730469 11.87402344 -4.24710937 10.81054688 -4.79296875 9.71484375 C-6 7 -6 7 -6 5 C-2.25 3.875 -2.25 3.875 0 5 C0 3.35 0 1.7 0 0 Z " fill="#B1F1E0" transform="translate(113,318)"/>
<path d="M0 0 C3.125 -0.1875 3.125 -0.1875 6 0 C6 0.33 6 0.66 6 1 C4.35 1.33 2.7 1.66 1 2 C1 3.32 1 4.64 1 6 C1.88042969 5.855625 2.76085937 5.71125 3.66796875 5.5625 C4.82941406 5.376875 5.99085937 5.19125 7.1875 5 C8.91033203 4.7215625 8.91033203 4.7215625 10.66796875 4.4375 C13.50415393 4.06510523 16.14719564 3.91403979 19 4 C15.77208445 6.1519437 14.71599191 6.20086443 11 6 C10.67 6.66 10.34 7.32 10 8 C9.0925 7.896875 8.185 7.79375 7.25 7.6875 C3.80271869 7.66048792 3.80271869 7.66048792 1.625 10.5 C1.08875 11.325 0.5525 12.15 0 13 C-1.16945792 12.19152271 -2.33550461 11.37810888 -3.5 10.5625 C-4.1496875 10.11003906 -4.799375 9.65757812 -5.46875 9.19140625 C-6.22671875 8.60166016 -6.22671875 8.60166016 -7 8 C-7 7.67 -7 7.34 -7 7 C-5.02 7 -3.04 7 -1 7 C-1.20625 6.401875 -1.4125 5.80375 -1.625 5.1875 C-2 3 -2 3 0 0 Z " fill="#C2EDE4" transform="translate(101,399)"/>
<path d="M0 0 C0.33 0 0.66 0 1 0 C1.39143394 1.74639757 1.76254287 3.49735918 2.125 5.25 C2.33382812 6.22453125 2.54265625 7.1990625 2.7578125 8.203125 C3.02521039 11.29113929 2.69457351 12.45813974 1 15 C-0.29470975 16.37086915 -1.62150897 17.71340837 -3 19 C-3.33 17.68 -3.66 16.36 -4 15 C-4.99 15.495 -4.99 15.495 -6 16 C-4.43551329 10.3856009 -2.83604813 5.13189662 0 0 Z " fill="#ACF0DD" transform="translate(98,226)"/>
<path d="M0 0 C0.99 0.33 1.98 0.66 3 1 C3 6.28 3 11.56 3 17 C2.34 17.33 1.68 17.66 1 18 C0.53476937 19.89533342 0.53476937 19.89533342 0.375 22.0625 C0.25125 23.361875 0.1275 24.66125 0 26 C-0.33 26 -0.66 26 -1 26 C-1.02907084 22.41668375 -1.04682263 18.83339792 -1.0625 15.25 C-1.07087891 14.23421875 -1.07925781 13.2184375 -1.08789062 12.171875 C-1.09111328 11.1921875 -1.09433594 10.2125 -1.09765625 9.203125 C-1.10289307 8.30239258 -1.10812988 7.40166016 -1.11352539 6.47363281 C-1.00762312 4.16610196 -0.65132813 2.20865595 0 0 Z " fill="#CBF9EF" transform="translate(389,199)"/>
<path d="M0 0 C-0.66 0 -1.32 0 -2 0 C-2.33 0.99 -2.66 1.98 -3 3 C-14.55 3 -26.1 3 -38 3 C-38 2.67 -38 2.34 -38 2 C-32.72 2 -27.44 2 -22 2 C-22 1.34 -22 0.68 -22 0 C-20.80503906 0.01740234 -20.80503906 0.01740234 -19.5859375 0.03515625 C-13.36985456 0.08809126 -5.821231 -2.0150415 0 0 Z " fill="#A6A6A6" transform="translate(286,378)"/>
<path d="M0 0 C0.33 0.66 0.66 1.32 1 2 C1.66 2 2.32 2 3 2 C3.01417969 2.60328125 3.02835937 3.2065625 3.04296875 3.828125 C3.26863196 9.24752091 3.26863196 9.24752091 6.5625 13.375 C7.366875 13.91125 8.17125 14.4475 9 15 C9 15.99 9 16.98 9 18 C11.31 18 13.62 18 16 18 C16 18.33 16 18.66 16 19 C9.23887974 19.71169687 9.23887974 19.71169687 5.98046875 17.83984375 C2.57196932 15.03411053 -0.15038797 12.46046318 -1 8 C-0.84690868 5.26987149 -0.45862965 2.70591496 0 0 Z " fill="#CBCBCB" transform="translate(339,252)"/>
<path d="M0 0 C2.79342021 2.00777077 3.69409489 4.30332773 5 7.4375 C5 8.0975 5 8.7575 5 9.4375 C0.1725201 8.02457905 -3.7162359 6.00775846 -8 3.4375 C-5.60880597 0.81857321 -3.75217995 -1.05530061 0 0 Z " fill="#B07C92" transform="translate(119,425.5625)"/>
<path d="M0 0 C0 0.33 0 0.66 0 1 C-1.25103516 1.03867187 -1.25103516 1.03867187 -2.52734375 1.078125 C-12.63103551 1.58736032 -19.20592553 3.54205258 -27 10 C-29.3125 10.75 -29.3125 10.75 -31 11 C-22.82788773 0.10385031 -13.18879282 -1.60257909 0 0 Z " fill="#26151D" transform="translate(279,342)"/>
<path d="M0 0 C3 2 3 2 3.73046875 4.8203125 C3.88128906 5.91085938 4.03210938 7.00140625 4.1875 8.125 C4.34605469 9.22070312 4.50460937 10.31640625 4.66796875 11.4453125 C4.83232422 12.70988281 4.83232422 12.70988281 5 14 C3.35 14.66 1.7 15.32 0 16 C0 10.72 0 5.44 0 0 Z " fill="#FDDE21" transform="translate(422,120)"/>
<path d="M0 0 C0.66 0.33 1.32 0.66 2 1 C0.6875 4.4375 0.6875 4.4375 -1 8 C-1.99 8.33 -2.98 8.66 -4 9 C-4 11.97 -4 14.94 -4 18 C-4.33 18 -4.66 18 -5 18 C-5.07347656 16.95199219 -5.07347656 16.95199219 -5.1484375 15.8828125 C-5.26058594 14.51769531 -5.26058594 14.51769531 -5.375 13.125 C-5.44460938 12.22007812 -5.51421875 11.31515625 -5.5859375 10.3828125 C-5.79568132 7.82058097 -5.79568132 7.82058097 -8 6 C-5.38485683 3.87961365 -2.80362384 1.86908256 0 0 Z " fill="#610D32" transform="translate(262,310)"/>
<path d="M0 0 C0.94875 0.350625 1.8975 0.70125 2.875 1.0625 C5.87060172 2.35026777 5.87060172 2.35026777 8 1 C8.33 5.62 8.66 10.24 9 15 C6.86509715 12.15346287 4.80540989 9.31761757 2.8125 6.375 C2.01779297 5.21097656 2.01779297 5.21097656 1.20703125 4.0234375 C0 2 0 2 0 0 Z " fill="#ADEAD9" transform="translate(390,225)"/>
<path d="M0 0 C0 1.32 0 2.64 0 4 C-4.95 4 -9.9 4 -15 4 C-13.49908341 0.99816681 -11.20167717 0.6329242 -8.14453125 -0.46875 C-5.21326235 -1.19489312 -2.88224676 -0.79261786 0 0 Z " fill="#B77F97" transform="translate(357,426)"/>
<path d="M0 0 C3 2 3 2 5 8 C-0.61 7.34 -6.22 6.68 -12 6 C-12 5.67 -12 5.34 -12 5 C-10.95199219 4.83564453 -10.95199219 4.83564453 -9.8828125 4.66796875 C-8.51769531 4.43013672 -8.51769531 4.43013672 -7.125 4.1875 C-5.76761719 3.96126953 -5.76761719 3.96126953 -4.3828125 3.73046875 C-1.65587522 3.16948699 -1.65587522 3.16948699 0 0 Z " fill="#A8386A" transform="translate(284,335)"/>
<path d="M0 0 C0.66 0 1.32 0 2 0 C3.6875 2.375 3.6875 2.375 5 5 C4.67 5.66 4.34 6.32 4 7 C2.35 7.33 0.7 7.66 -1 8 C-0.67 12.95 -0.34 17.9 0 23 C-0.66 22.67 -1.32 22.34 -2 22 C-2.05454409 19.64551325 -2.0939279 17.29232125 -2.125 14.9375 C-2.14820313 13.62652344 -2.17140625 12.31554687 -2.1953125 10.96484375 C-1.99417522 6.88175701 -1.27165462 3.85000947 0 0 Z " fill="#610E32" transform="translate(246,327)"/>
<path d="M0 0 C0.99 0.33 1.98 0.66 3 1 C1.48739496 4.78151261 1.48739496 4.78151261 -0.8125 5.8125 C-4.23182097 7.66870281 -5.9035337 10.79825385 -8 14 C-8.66 14.99 -9.32 15.98 -10 17 C-9.57002349 9.97705033 -6.96541662 5.79098035 -1.875 1 C-1.25625 0.67 -0.6375 0.34 0 0 Z " fill="#ABABAB" transform="translate(328,233)"/>
<path d="M0 0 C1.32 0.33 2.64 0.66 4 1 C3.67 4.63 3.34 8.26 3 12 C2.34 12 1.68 12 1 12 C-2.0669145 6.60223048 -2.0669145 6.60223048 -1.75 3.75 C-1.20662295 2.48212021 -0.61689185 1.2337837 0 0 Z " fill="#B3B3B4" transform="translate(251,319)"/>
<path d="M0 0 C0 1.65 0 3.3 0 5 C-0.66 4.34 -1.32 3.68 -2 3 C-2.969375 3.78375 -3.93875 4.5675 -4.9375 5.375 C-5.48277344 5.81585938 -6.02804687 6.25671875 -6.58984375 6.7109375 C-8.13266437 7.9666391 -8.13266437 7.9666391 -9 10 C-9.66 10 -10.32 10 -11 10 C-11 10.66 -11 11.32 -11 12 C-12.32 12 -13.64 12 -15 12 C-14.67 13.65 -14.34 15.3 -14 17 C-14.66 17.33 -15.32 17.66 -16 18 C-16.60740994 15.08443227 -16.87410476 13.78457324 -16 11 C-13.65754867 8.63597914 -11.17757432 6.74283862 -8.48046875 4.796875 C-6.02849181 3.13810183 -6.02849181 3.13810183 -4.36328125 1.265625 C-3 0 -3 0 0 0 Z " fill="#C6F0E7" transform="translate(365,329)"/>
<path d="M0 0 C1.32 0 2.64 0 4 0 C5.11658501 4.68965706 4.80619523 7.53763531 3 12 C2.34 12 1.68 12 1 12 C-0.3271261 8.0186217 -0.06915913 4.14954773 0 0 Z " fill="#B2B2B2" transform="translate(295,319)"/>
<path d="M0 0 C2.0625 0.4375 2.0625 0.4375 4 1 C4.33 2.98 4.66 4.96 5 7 C3.02 7.99 3.02 7.99 1 9 C-0.5625 7.25 -0.5625 7.25 -2 5 C-1.75203633 2.83031791 -1.55766393 1.55766393 0 0 Z " fill="#F4B3CF" transform="translate(96,387)"/>
<path d="M0 0 C0.33 0 0.66 0 1 0 C1.04241723 2.33294775 1.04092937 4.66702567 1 7 C0.67 7.33 0.34 7.66 0 8 C-0.15873955 10.21687994 -0.25133837 12.43855298 -0.31640625 14.66015625 C-0.33718735 15.32462265 -0.35796844 15.98908905 -0.37937927 16.6736908 C-0.44493658 18.80318543 -0.50378785 20.93280668 -0.5625 23.0625 C-0.60567939 24.50326847 -0.64929349 25.94402399 -0.69335938 27.38476562 C-0.80062393 30.9230404 -0.90187371 34.46145869 -1 38 C-1.33 38 -1.66 38 -2 38 C-2.04966189 33.55258682 -2.08584293 29.1053232 -2.10986328 24.65771484 C-2.11988339 23.14661851 -2.13350321 21.63554138 -2.15087891 20.12451172 C-2.17530392 17.94493858 -2.18652307 15.76562316 -2.1953125 13.5859375 C-2.20578613 12.2767334 -2.21625977 10.9675293 -2.22705078 9.61865234 C-2.00366763 6.0584534 -1.2935223 3.30765738 0 0 Z " fill="#FBF7B1" transform="translate(202,310)"/>
<path d="M0 0 C0 0.66 0 1.32 0 2 C-1.96875 3.5078125 -1.96875 3.5078125 -4.5 5.125 C-5.3353125 5.66382813 -6.170625 6.20265625 -7.03125 6.7578125 C-7.6809375 7.16773438 -8.330625 7.57765625 -9 8 C-9.33 6.35 -9.66 4.7 -10 3 C-10.99 2.67 -11.98 2.34 -13 2 C-4.57142857 -0.28571429 -4.57142857 -0.28571429 0 0 Z " fill="#C2F0E7" transform="translate(141,400)"/>
<path d="M0 0 C1.75994274 3.16789693 2.24872886 5.24364431 3 9 C-0.3 8.34 -3.6 7.68 -7 7 C-4.66666667 4.66666667 -2.33333333 2.33333333 0 0 Z " fill="#C6ECE5" transform="translate(377,420)"/>
<path d="M0 0 C0 3.32311159 -0.65206575 4.72421036 -2.1875 7.625 C-2.79658203 8.81996094 -2.79658203 8.81996094 -3.41796875 10.0390625 C-5 12 -5 12 -7.67578125 12.7734375 C-8.44277344 12.84820312 -9.20976562 12.92296875 -10 13 C-8.65515286 8.95838045 -6.9494838 6.61321846 -3.875 3.6875 C-3.15054687 2.99011719 -2.42609375 2.29273438 -1.6796875 1.57421875 C-1.12539063 1.05472656 -0.57109375 0.53523438 0 0 Z " fill="#AEAEAE" transform="translate(406,327)"/>
<path d="M0 0 C-0.50603992 2.16874252 -0.99983813 3.99967627 -2 6 C-4.32156597 6.40729228 -6.6568787 6.74438677 -9 7 C-8.8125 5.1875 -8.8125 5.1875 -8 3 C-5.09303401 0.85802506 -3.64478912 0 0 0 Z " fill="#B4F8E7" transform="translate(96,385)"/>
<path d="M0 0 C0.66 0 1.32 0 2 0 C2.66 2.97 3.32 5.94 4 9 C-1.75 7.125 -1.75 7.125 -4 6 C-2.84826645 3.53199953 -1.95216435 1.95216435 0 0 Z " fill="#B0B0AE" transform="translate(187,361)"/>
<path d="M0 0 C0 0.33 0 0.66 0 1 C-1.65 1 -3.3 1 -5 1 C-5 1.99 -5 2.98 -5 4 C-7.84498177 5.97568178 -10.88256767 7.49901406 -14 9 C-13.45712148 5.19985035 -11.88535357 3.46103687 -9 1 C-5.8035914 -0.06546953 -3.34252724 -0.07427838 0 0 Z " fill="#DADADA" transform="translate(354,245)"/>
<path d="M0 0 C1.1875 3.0625 1.1875 3.0625 2 6 C1.01 6.33 0.02 6.66 -1 7 C-1.99 5.35 -2.98 3.7 -4 2 C-9.94 2.495 -9.94 2.495 -16 3 C-16 2.34 -16 1.68 -16 1 C-13.8973294 0.63705686 -11.79278943 0.28493028 -9.6875 -0.0625 C-8.51574219 -0.25972656 -7.34398438 -0.45695312 -6.13671875 -0.66015625 C-3 -1 -3 -1 0 0 Z " fill="#CBE6E3" transform="translate(126,396)"/>
<path d="M0 0 C0.66 0.99 1.32 1.98 2 3 C1.52949219 3.38671875 1.05898437 3.7734375 0.57421875 4.171875 C-2.72356535 6.93026998 -5.45450752 9.5166945 -8 13 C-8.66 13 -9.32 13 -10 13 C-9.48223379 8.89552608 -7.35372556 7.04300477 -4.4375 4.25 C-3.61121094 3.45078125 -2.78492187 2.6515625 -1.93359375 1.828125 C-1.29550781 1.22484375 -0.65742187 0.6215625 0 0 Z " fill="#E4BACD" transform="translate(116,355)"/>
<path d="M0 0 C1.8871875 0.061875 1.8871875 0.061875 3.8125 0.125 C3.8125 0.785 3.8125 1.445 3.8125 2.125 C3.18601563 2.31835938 2.55953125 2.51171875 1.9140625 2.7109375 C1.09679687 2.97132813 0.27953125 3.23171875 -0.5625 3.5 C-1.37460938 3.75523437 -2.18671875 4.01046875 -3.0234375 4.2734375 C-5.35209185 5.02354283 -5.35209185 5.02354283 -7.1875 7.125 C-7.8475 6.795 -8.5075 6.465 -9.1875 6.125 C-7.20938974 1.56013016 -5.01716504 -0.16449721 0 0 Z " fill="#DEDEDE" transform="translate(194.1875,245.875)"/>
<path d="M0 0 C0.66 0.99 1.32 1.98 2 3 C3.32381517 4.67423683 4.65576661 6.34211215 6 8 C5.01 8 4.02 8 3 8 C3 10.31 3 12.62 3 15 C1.35 15 -0.3 15 -2 15 C-1.484375 14.46375 -0.96875 13.9275 -0.4375 13.375 C1.30272841 11.00662386 1.30272841 11.00662386 0.8125 7.8125 C0.544375 6.884375 0.27625 5.95625 0 5 C-0.66 4.67 -1.32 4.34 -2 4 C-2 3.34 -2 2.68 -2 2 C-1.34 2 -0.68 2 0 2 C0 1.34 0 0.68 0 0 Z " fill="#CAE4E2" transform="translate(109,372)"/>
<path d="M0 0 C0.66 0.33 1.32 0.66 2 1 C1.67 1.66 1.34 2.32 1 3 C1.99 2.67 2.98 2.34 4 2 C4 3.98 4 5.96 4 8 C3.67 6.68 3.34 5.36 3 4 C-0.96 5.65 -4.92 7.3 -9 9 C-9 8.01 -9 7.02 -9 6 C-5.535 5.505 -5.535 5.505 -2 5 C-1.855625 4.360625 -1.71125 3.72125 -1.5625 3.0625 C-1 1 -1 1 0 0 Z " fill="#B8F8E7" transform="translate(440,347)"/>
<path d="M0 0 C0.33 0 0.66 0 1 0 C1.33695862 2.72876308 1.66968429 5.45793163 2 8.1875 C2.09539062 8.95642578 2.19078125 9.72535156 2.2890625 10.51757812 C2.75192894 14.36928811 3.12467468 18.11170851 3 22 C0.52557871 19.84832931 -0.56238367 18.28212246 -1 15 C-0.67 14.67 -0.34 14.34 0 14 C0.07271741 11.64686445 0.08370868 9.29166332 0.0625 6.9375 C0.05347656 5.64714844 0.04445313 4.35679687 0.03515625 3.02734375 C0.02355469 2.02832031 0.01195313 1.02929688 0 0 Z " fill="#87AEA3" transform="translate(113,318)"/>
<path d="M0 0 C0.33 1.32 0.66 2.64 1 4 C1.66 4 2.32 4 3 4 C3 7.3 3 10.6 3 14 C2.01 14.33 1.02 14.66 0 15 C0 10.05 0 5.1 0 0 Z " fill="#A7E8D5" transform="translate(436,322)"/>
<path d="M0 0 C1.69752187 0.25245197 3.38471545 0.57645775 5.0625 0.9375 C5.98160156 1.13214844 6.90070313 1.32679688 7.84765625 1.52734375 C8.91306641 1.76130859 8.91306641 1.76130859 10 2 C10 2.66 10 3.32 10 4 C6.37 4 2.74 4 -1 4 C-1 1 -1 1 0 0 Z " fill="#B07B92" transform="translate(195,427)"/>
<path d="M0 0 C0.33 0.99 0.66 1.98 1 3 C-0.9626228 5.04795423 -2.4277307 5.94976638 -5.26953125 6.19921875 C-7.51954383 6.18858877 -9.75385562 6.12958525 -12 6 C-12 5.34 -12 4.68 -12 4 C-10.7625 3.71125 -9.525 3.4225 -8.25 3.125 C-5.27551258 2.38665206 -2.666144 1.55525067 0 0 Z " fill="#EAEAEA" transform="translate(360,264)"/>
<path d="M0 0 C-1.50716297 3.83641483 -3.48413488 5.85990819 -7 8 C-9.76146771 8.32789227 -12.20333676 8.18960429 -15 8 C-15 7.67 -15 7.34 -15 7 C-12.69 7 -10.38 7 -8 7 C-8 6.01 -8 5.02 -8 4 C-3.77142857 0 -3.77142857 0 0 0 Z " fill="#CCCCCC" transform="translate(207,263)"/>
<path d="M0 0 C3.33333333 0 6.66666667 0 10 0 C10 0.66 10 1.32 10 2 C6.04 3.98 6.04 3.98 2 6 C0 3 0 3 0 0 Z " fill="#B07D94" transform="translate(416,424)"/>
<path d="M0 0 C3.73487777 0.4979837 5.81237635 0.87491756 9 3 C9 3.66 9 4.32 9 5 C6.36 5 3.72 5 1 5 C0.67 3.35 0.34 1.7 0 0 Z " fill="#EFA8C7" transform="translate(178,421)"/>
<path d="M0 0 C0.33 0 0.66 0 1 0 C1.66 3.63 2.32 7.26 3 11 C0 11 0 11 -1.6875 9.5 C-2.120625 9.005 -2.55375 8.51 -3 8 C-1.125 2.25 -1.125 2.25 0 0 Z " fill="#A4DBCC" transform="translate(98,226)"/>
<path d="M0 0 C0.5775 0.680625 1.155 1.36125 1.75 2.0625 C2.4925 2.701875 3.235 3.34125 4 4 C6.21858253 3.86358623 6.21858253 3.86358623 8 3 C7.67 4.65 7.34 6.3 7 8 C6.01 7.67 5.02 7.34 4 7 C4.33 7.99 4.66 8.98 5 10 C4.01 9.67 3.02 9.34 2 9 C1.896875 8.236875 1.79375 7.47375 1.6875 6.6875 C0.95635961 3.82940576 0.23048087 2.84257115 -2 1 C-1.34 0.67 -0.68 0.34 0 0 Z " fill="#CAE8E4" transform="translate(93,391)"/>
<path d="M0 0 C0.66 0 1.32 0 2 0 C4.1103435 4.27884606 4.24128739 8.13864142 4.125 12.8125 C4.11597656 13.50537109 4.10695313 14.19824219 4.09765625 14.91210938 C4.07426157 16.60822395 4.03839641 18.30415871 4 20 C3.67 20 3.34 20 3 20 C2.67 15.38 2.34 10.76 2 6 C1.01 5.67 0.02 5.34 -1 5 C-0.67 3.35 -0.34 1.7 0 0 Z " fill="#4F0E2A" transform="translate(301,327)"/>
<path d="M0 0 C0.99 0.33 1.98 0.66 3 1 C1.02 1.99 1.02 1.99 -1 3 C-1 4.32 -1 5.64 -1 7 C0.32 7.33 1.64 7.66 3 8 C0.36 8.66 -2.28 9.32 -5 10 C-4.45276317 6.62537285 -3.9451 4.91765 -2 2 C-1.34 2 -0.68 2 0 2 C0 1.34 0 0.68 0 0 Z " fill="#9F3A65" transform="translate(264,334)"/>
<path d="M0 0 C0 3.58179266 -0.84502896 4.5576607 -2.875 7.4375 C-4.82503 10.22123848 -6.55493168 12.9204612 -8 16 C-8.70703125 13.79296875 -8.70703125 13.79296875 -9 11 C-7.63671875 8.61328125 -7.63671875 8.61328125 -5.6875 6.3125 C-4.73423828 5.16201172 -4.73423828 5.16201172 -3.76171875 3.98828125 C-2.54978167 2.6204853 -1.29221849 1.29221849 0 0 Z " fill="#DFDFDF" transform="translate(172,233)"/>
<path d="M0 0 C-1.59092052 4.13639336 -4.60474918 7.23213248 -8 10 C-8.66 10 -9.32 10 -10 10 C-8.50006099 6.10015857 -4.53875449 0 0 0 Z " fill="#E5BDD0" transform="translate(105,369)"/>
<path d="M0 0 C0.66 0 1.32 0 2 0 C2.33 1.65 2.66 3.3 3 5 C0 7 0 7 -3 7 C-2.38722388 4.03824877 -1.74627478 2.61941217 0 0 Z " fill="#F2B2CE" transform="translate(374,417)"/>
<path d="M0 0 C1.23922223 3.71766668 0.57018942 5.43889537 -0.4375 9.1875 C-0.72496094 10.27417969 -1.01242187 11.36085938 -1.30859375 12.48046875 C-1.53675781 13.31191406 -1.76492188 14.14335937 -2 15 C-2.33 14.01 -2.66 13.02 -3 12 C-3.66 11.67 -4.32 11.34 -5 11 C-3.35 7.37 -1.7 3.74 0 0 Z " fill="#9EA3A4" transform="translate(419,366)"/>
<path d="M0 0 C1.32 1.32 2.64 2.64 4 4 C2.35 4.33 0.7 4.66 -1 5 C-1.33 6.65 -1.66 8.3 -2 10 C-2.66 9.34 -3.32 8.68 -4 8 C-3.66306057 4.63060567 -2.11180592 2.57089417 0 0 Z " fill="#A5DACA" transform="translate(439,252)"/>
<path d="M0 0 C0.33 0 0.66 0 1 0 C1 2.97 1 5.94 1 9 C0.01 9.495 0.01 9.495 -1 10 C-1.66 9.67 -2.32 9.34 -3 9 C-2.44271087 5.65626525 -1.64826111 2.96687001 0 0 Z " fill="#BDBDBD" transform="translate(442,214)"/>
<path d="M0 0 C0.66 0.33 1.32 0.66 2 1 C1.67 1.66 1.34 2.32 1 3 C1.66 3.33 2.32 3.66 3 4 C2.34 4 1.68 4 1 4 C1 4.66 1 5.32 1 6 C-0.375 7.625 -0.375 7.625 -2 9 C-2.66 9 -3.32 9 -4 9 C-4 7.35 -4 5.7 -4 4 C-2.68 3.67 -1.36 3.34 0 3 C0 2.01 0 1.02 0 0 Z " fill="#D1D9DC" transform="translate(94,376)"/>
<path d="M0 0 C0.66 0.99 1.32 1.98 2 3 C1.360625 3.268125 0.72125 3.53625 0.0625 3.8125 C-2.33131686 4.88667752 -2.33131686 4.88667752 -3 8 C-3.99 8 -4.98 8 -6 8 C-6.33 9.32 -6.66 10.64 -7 12 C-7.4375 9.9375 -7.4375 9.9375 -7 7 C-4.87919817 4.42739828 -2.49372439 2.20745501 0 0 Z " fill="#BE8BA1" transform="translate(257,347)"/>
<path d="M0 0 C0.33 0 0.66 0 1 0 C1.17835515 4.54805635 0.99785435 7.8794254 -1 12 C-1.99 11.67 -2.98 11.34 -4 11 C-3.71758359 9.53984709 -3.42373386 8.08190207 -3.125 6.625 C-2.96257812 5.81289063 -2.80015625 5.00078125 -2.6328125 4.1640625 C-2 2 -2 2 0 0 Z " fill="#D1D1D1" transform="translate(363,254)"/>
<path d="M0 0 C2.02350324 3.03525486 2.32124018 4.19426202 2.625 7.6875 C2.69976562 8.49574219 2.77453125 9.30398437 2.8515625 10.13671875 C2.92503906 11.05904297 2.92503906 11.05904297 3 12 C1.02 12 -0.96 12 -3 12 C-2.2575 10.9790625 -2.2575 10.9790625 -1.5 9.9375 C0.30365111 6.40534991 0.23021353 3.91363009 0 0 Z " fill="#D1BA2A" transform="translate(437,168)"/>
<path d="M0 0 C5.28 0 10.56 0 16 0 C16.33 0.99 16.66 1.98 17 3 C11.39 2.34 5.78 1.68 0 1 C0 0.67 0 0.34 0 0 Z " fill="#91395E" transform="translate(272,340)"/>
<path d="M0 0 C0.99 0 1.98 0 3 0 C3 4.29 3 8.58 3 13 C2.67 13 2.34 13 2 13 C2 10.69 2 8.38 2 6 C1.34 6 0.68 6 0 6 C0 4.02 0 2.04 0 0 Z " fill="#B9FDE9" transform="translate(437,320)"/>
<path d="M0 0 C0.66 0 1.32 0 2 0 C3.7265625 1.75 3.7265625 1.75 5.625 4 C6.25664063 4.7425 6.88828125 5.485 7.5390625 6.25 C8.02117187 6.8275 8.50328125 7.405 9 8 C7.68 8.33 6.36 8.66 5 9 C3.35 6.03 1.7 3.06 0 0 Z " fill="#B28296" transform="translate(85,398)"/>
<path d="M0 0 C1.2065625 0.0309375 1.2065625 0.0309375 2.4375 0.0625 C2.4375 1.3825 2.4375 2.7025 2.4375 4.0625 C3.0975 3.7325 3.7575 3.4025 4.4375 3.0625 C4.1075 4.3825 3.7775 5.7025 3.4375 7.0625 C2.4475 7.0625 1.4575 7.0625 0.4375 7.0625 C0.4375 5.4125 0.4375 3.7625 0.4375 2.0625 C-0.8825 1.7325 -2.2025 1.4025 -3.5625 1.0625 C-2.5625 0.0625 -2.5625 0.0625 0 0 Z " fill="#A1D8C9" transform="translate(411.5625,385.9375)"/>
<path d="M0 0 C1.11375 0.598125 2.2275 1.19625 3.375 1.8125 C4.00148438 2.14894531 4.62796875 2.48539062 5.2734375 2.83203125 C7 4 7 4 9 7 C8.34 7.66 7.68 8.32 7 9 C4.03595495 6.19195732 1.55500981 3.81684226 0 0 Z " fill="#1A0D13" transform="translate(292,346)"/>
<path d="M0 0 C-1.52708963 3.43595166 -3.59927045 6.11912454 -6 9 C-6.8125 7.3125 -6.8125 7.3125 -7 5 C-2.79545455 0 -2.79545455 0 0 0 Z " fill="#E0B7CB" transform="translate(89,386)"/>
<path d="M0 0 C-0.66 1.32 -1.32 2.64 -2 4 C-2.99 4 -3.98 4 -5 4 C-5.33 2.68 -5.66 1.36 -6 0 C-3.50907189 -1.24546405 -2.58919267 -0.7767578 0 0 Z " fill="#ACEAD9" transform="translate(113,323)"/>
<path d="M0 0 C1.31223496 3.93670488 0.24296256 6.12488144 -1 10 C-1.66 10 -2.32 10 -3 10 C-2.88637738 8.5199159 -2.75877092 7.04089926 -2.625 5.5625 C-2.55539063 4.73878906 -2.48578125 3.91507813 -2.4140625 3.06640625 C-2.27742187 2.38449219 -2.14078125 1.70257813 -2 1 C-1.34 0.67 -0.68 0.34 0 0 Z " fill="#ECECEC" transform="translate(186,251)"/>
<path d="M0 0 C0.99 0.33 1.98 0.66 3 1 C2.3125 2.9375 2.3125 2.9375 1 5 C-1.625 5.75 -1.625 5.75 -4 6 C-4 5.01 -4 4.02 -4 3 C-2.1875 1.25 -2.1875 1.25 0 0 Z " fill="#C8C8C8" transform="translate(328,233)"/>
<path d="M0 0 C0 1.32 0 2.64 0 4 C-2.31 3.67 -4.62 3.34 -7 3 C-7 2.34 -7 1.68 -7 1 C-4.53721199 -0.231394 -2.7204945 -0.07159196 0 0 Z " fill="#E9B6CD" transform="translate(380,425)"/>
<path d="M0 0 C0.66 1.32 1.32 2.64 2 4 C0.02 6.31 -1.96 8.62 -4 11 C-4.66 10.67 -5.32 10.34 -6 10 C-4.02 7.69 -2.04 5.38 0 3 C-0.66 2.67 -1.32 2.34 -2 2 C-1.34 2 -0.68 2 0 2 C0 1.34 0 0.68 0 0 Z " fill="#C4EDE5" transform="translate(105,366)"/>
<path d="M0 0 C3.375 4.5 3.375 4.5 3 9 C2.01 9.33 1.02 9.66 0 10 C0 6.7 0 3.4 0 0 Z " fill="#C1C1C1" transform="translate(105,217)"/>
<path d="M0 0 C-0.99 1.485 -0.99 1.485 -2 3 C-5.625 3.1875 -5.625 3.1875 -9 3 C-6.38220849 -0.01046024 -3.86655673 -1.93327837 0 0 Z " fill="#D99BB5" transform="translate(362,423)"/>
<path d="M0 0 C1.32 0.33 2.64 0.66 4 1 C2.35 2.65 0.7 4.3 -1 6 C-1.66 4.68 -2.32 3.36 -3 2 C-2.01 2 -1.02 2 0 2 C0 1.34 0 0.68 0 0 Z " fill="#AE798F" transform="translate(430,418)"/>
<path d="M0 0 C1.98362069 2.91708924 1.9876191 4.12380904 1.625 7.75 C1.41875 8.8225 1.2125 9.895 1 11 C0.01 10.67 -0.98 10.34 -2 10 C-1.46274105 6.62294375 -0.88935377 3.303314 0 0 Z " fill="#DAA9BF" transform="translate(430,354)"/>
<path d="M0 0 C2.29633824 3.44450737 2.54016485 5.93812283 3 10 C2.01 9.67 1.02 9.34 0 9 C-1.15941038 5.52176885 -0.70820884 3.54104422 0 0 Z " fill="#CEB92D" transform="translate(428,133)"/>
<path d="M0 0 C3 2 3 2 3.6875 4.625 C3.8421875 5.800625 3.8421875 5.800625 4 7 C2.68 7 1.36 7 0 7 C0 4.69 0 2.38 0 0 Z " fill="#E7CE30" transform="translate(422,120)"/>
<path d="M0 0 C1.9375 0.8125 1.9375 0.8125 4 2 C4.33 2.99 4.66 3.98 5 5 C2 5 2 5 -1 3 C-0.67 2.01 -0.34 1.02 0 0 Z " fill="#7EAEA1" transform="translate(103,419)"/>
<path d="M0 0 C0.66 0 1.32 0 2 0 C2 2.64 2 5.28 2 8 C1.01 8 0.02 8 -1 8 C-0.67 5.36 -0.34 2.72 0 0 Z " fill="#F1F1F1" transform="translate(206,255)"/>
<path d="M0 0 C0.33 1.32 0.66 2.64 1 4 C-2.3 3.34 -5.6 2.68 -9 2 C-9 1.67 -9 1.34 -9 1 C-7.700625 1.020625 -6.40125 1.04125 -5.0625 1.0625 C-3.70834367 1.08399454 -2.35243917 1.07148199 -1 1 C-0.67 0.67 -0.34 0.34 0 0 Z " fill="#D9C337" transform="translate(203,370)"/>
<path d="M0 0 C2 2 2 2 2.125 5.625 C2.08375 6.73875 2.0425 7.8525 2 9 C0.4375 7.3125 0.4375 7.3125 -1 5 C-0.6875 2.25 -0.6875 2.25 0 0 Z " fill="#A4A4A4" transform="translate(391,248)"/>
<path d="M0 0 C1.10191901 4.40767604 0.58706842 5.8922935 -1 10 C-1.66 10 -2.32 10 -3 10 C-2.01 6.7 -1.02 3.4 0 0 Z " fill="#CFBA32" transform="translate(418,151)"/>
<path d="M0 0 C0.66 1.32 1.32 2.64 2 4 C0.02 4.33 -1.96 4.66 -4 5 C-3.6875 3.0625 -3.6875 3.0625 -3 1 C-2.01 0.67 -1.02 0.34 0 0 Z " fill="#B27991" transform="translate(134,433)"/>
<path d="M0 0 C-1.5625 1.5625 -1.5625 1.5625 -4 3 C-7.75 2.6875 -7.75 2.6875 -11 2 C-7.36576791 -0.32590854 -4.22911669 -0.16265833 0 0 Z " fill="#E9BCD1" transform="translate(141,393)"/>
<path d="M0 0 C0.99 0.33 1.98 0.66 3 1 C1.35 2.65 -0.3 4.3 -2 6 C-2.33 5.01 -2.66 4.02 -3 3 C-2.01 2.01 -1.02 1.02 0 0 Z " fill="#B8869C" transform="translate(296,358)"/>
</svg>
